<?xml version="1.0" encoding="UTF-8" standalone="no"?>
<svg
   xmlns:dc="http://purl.org/dc/elements/1.1/"
   xmlns:cc="http://creativecommons.org/ns#"
   xmlns:rdf="http://www.w3.org/1999/02/22-rdf-syntax-ns#"
   xmlns:svg="http://www.w3.org/2000/svg"
   xmlns="http://www.w3.org/2000/svg"
   xmlns:sodipodi="http://sodipodi.sourceforge.net/DTD/sodipodi-0.dtd"
   xmlns:inkscape="http://www.inkscape.org/namespaces/inkscape"
   width="22"
   height="22"
   viewBox="0 0 32 32"
   version="1.1"
   id="svg14"
   sodipodi:docname="earth.svg"
   inkscape:version="0.92.3 (2405546, 2018-03-11)">
  <metadata
     id="metadata20">
    <rdf:RDF>
      <cc:Work
         rdf:about="">
        <dc:format>image/svg+xml</dc:format>
        <dc:type
           rdf:resource="http://purl.org/dc/dcmitype/StillImage" />
      </cc:Work>
    </rdf:RDF>
  </metadata>
  <defs
     id="defs18" />
  <sodipodi:namedview
     pagecolor="#ffffff"
     bordercolor="#666666"
     borderopacity="1"
     objecttolerance="10"
     gridtolerance="10"
     guidetolerance="10"
     inkscape:pageopacity="0"
     inkscape:pageshadow="2"
     inkscape:window-width="1804"
     inkscape:window-height="855"
     id="namedview16"
     showgrid="false"
     inkscape:zoom="7.375"
     inkscape:cx="2.3050847"
     inkscape:cy="16"
     inkscape:window-x="0"
     inkscape:window-y="0"
     inkscape:window-maximized="0"
     inkscape:current-layer="svg14" />
  <g
     id="g12"
     style="fill:none;fill-rule:evenodd">
    <g
       transform="translate(3,3)"
       id="g8"
       style="stroke:#979797">
      <circle
         cx="12.768"
         cy="12.768"
         r="12.768"
         id="circle2"
         style="fill:#979797;stroke-width:0.85000002" />
      <path
         d="M 23.8,6.352 A 12.701,12.701 0 0 0 19.158,1.711 C 17.203,0.57 15.07,0 12.755,0 10.441,0 8.307,0.57 6.353,1.71 A 12.698,12.698 0 0 0 1.71,6.353 C 0.57,8.307 0,10.441 0,12.755 c 0,2.314 0.57,4.448 1.71,6.402 A 12.704,12.704 0 0 0 6.354,23.8 c 1.954,1.14 4.088,1.71 6.402,1.71 2.314,0 4.448,-0.57 6.403,-1.71 A 12.698,12.698 0 0 0 23.8,19.158 c 1.14,-1.954 1.71,-4.088 1.71,-6.402 0,-2.314 -0.57,-4.449 -1.71,-6.403 z"
         id="path4"
         inkscape:connector-curvature="0"
         style="fill:#2b3239;fill-rule:nonzero;stroke-width:0.85000002" />
      <path
         d="m 14.35,19.466 c -0.11,-0.133 -0.15,-0.244 -0.116,-0.333 -0.01,0.056 -0.05,0.106 -0.116,0.15 a 1.584,1.584 0 0 0 -0.299,-0.25 1.567,1.567 0 0 1 -0.299,-0.249 15.525,15.525 0 0 1 -0.24,-0.382 c -0.061,-0.1 -0.106,-0.185 -0.133,-0.257 -0.028,-0.072 -0.03,-0.114 -0.009,-0.124 -0.21,0.088 -0.515,0.027 -0.913,-0.183 -0.078,-0.044 -0.194,-0.16 -0.349,-0.349 -0.155,-0.188 -0.315,-0.271 -0.482,-0.25 -0.055,0.012 -0.13,0.031 -0.224,0.059 A 0.868,0.868 0 0 1 10.93,17.339 0.758,0.758 0 0 1 10.664,17.273 2.142,2.142 0 0 1 10.307,17.082 2.38,2.38 0 0 0 9.999,16.908 L 9.784,16.791 9.518,16.659 A 0.816,0.816 0 0 1 9.31,16.501 0.526,0.526 0 0 1 9.17,16.277 C 9.147,16.211 9.12,16.077 9.086,15.878 9.053,15.678 9.009,15.535 8.953,15.447 A 1.497,1.497 0 0 0 8.671,15.114 c -0.122,-0.11 -0.232,-0.166 -0.332,-0.166 0.089,0 0.089,-0.074 0,-0.224 A 1.682,1.682 0 0 0 8.106,14.4 20.797,20.797 0 0 1 7.624,13.868 1.327,1.327 0 0 1 7.425,13.561 C 7.37,13.445 7.359,13.348 7.392,13.271 c 0.011,-0.012 0,-0.028 -0.033,-0.05 a 0.86,0.86 0 0 0 -0.125,-0.067 2.855,2.855 0 0 0 -0.14,-0.058 0.327,0.327 0 0 0 -0.1,-0.025 c 0.022,0.045 0.047,0.125 0.074,0.241 A 0.956,0.956 0 0 0 7.16,13.57 c 0.022,0.044 0.116,0.205 0.282,0.481 0.288,0.465 0.42,0.809 0.399,1.03 C 7.774,15.103 7.73,15.092 7.708,15.048 A 0.605,0.605 0 0 1 7.658,14.865 1.044,1.044 0 0 0 7.625,14.699 C 7.591,14.633 7.505,14.561 7.367,14.483 7.229,14.406 7.143,14.328 7.11,14.251 A 0.077,0.077 0 0 0 7.151,14.234 0.08,0.08 0 0 1 7.193,14.218 C 7.204,14.118 7.146,13.991 7.018,13.835 6.891,13.68 6.838,13.57 6.861,13.503 6.772,13.437 6.695,13.307 6.628,13.113 6.562,12.919 6.506,12.795 6.462,12.739 A 0.71,0.71 0 0 0 6.296,12.565 3.277,3.277 0 0 0 6.046,12.399 C 5.947,12.338 5.881,12.297 5.847,12.274 A 0.64,0.64 0 0 1 5.715,12.125 C 5.349,11.682 5.239,11.445 5.383,11.411 5.239,11.444 5.12,11.336 5.025,11.087 4.931,10.837 4.901,10.647 4.935,10.514 L 4.901,10.497 c 0.011,-0.044 0.017,-0.174 0.017,-0.39 0,-0.216 0.014,-0.413 0.041,-0.59 C 4.987,9.34 5.039,9.252 5.117,9.252 5.04,9.262 4.981,9.193 4.943,9.044 4.903,8.894 4.901,8.792 4.934,8.737 4.945,8.703 4.995,8.726 5.084,8.803 a 0.85,0.85 0 0 1 0.15,0.15 C 5.377,8.875 5.433,8.775 5.399,8.653 5.377,8.609 5.261,8.493 5.05,8.305 4.574,7.995 4.33,7.845 4.32,7.856 4.386,7.734 4.37,7.629 4.27,7.541 4.16,7.607 4.096,7.624 4.079,7.591 A 0.643,0.643 0 0 1 4.037,7.408 C 4.027,7.319 3.998,7.27 3.954,7.258 3.899,7.248 3.832,7.203 3.755,7.126 A 10.481,10.481 0 0 1 7.658,3.439 C 7.724,3.428 7.846,3.422 8.023,3.422 a 0.664,0.664 0 0 1 0.25,0.083 C 8.35,3.549 8.43,3.61 8.513,3.688 8.596,3.765 8.66,3.82 8.703,3.854 8.726,3.787 8.698,3.688 8.621,3.554 8.643,3.488 8.765,3.422 8.986,3.355 9.241,3.322 9.407,3.328 9.484,3.372 A 4.369,4.369 0 0 0 9.152,2.957 L 9.069,3.04 C 8.981,2.962 8.749,3.001 8.372,3.156 8.35,3.166 8.294,3.198 8.206,3.247 8.117,3.297 8.046,3.333 7.99,3.355 A 0.41,0.41 0 0 1 7.79,3.372 9.408,9.408 0 0 1 9.352,2.691 C 9.385,2.713 9.44,2.76 9.518,2.831 9.595,2.904 9.656,2.956 9.7,2.99 9.667,2.968 9.645,2.978 9.634,3.023 c -0.044,0.133 -0.044,0.243 0,0.332 0.055,0.078 0.13,0.122 0.224,0.133 0.094,0.01 0.208,0.005 0.34,-0.017 0.134,-0.022 0.222,-0.033 0.267,-0.033 l 0.166,0.017 c 0.354,0.033 0.492,0 0.415,-0.1 0.033,0.044 0.072,0.136 0.116,0.274 a 0.737,0.737 0 0 0 0.15,0.29 c 0.055,-0.044 0.066,-0.121 0.033,-0.232 -0.034,-0.11 -0.034,-0.188 0,-0.232 0.01,-0.022 0.044,-0.045 0.1,-0.067 l 0.19,-0.075 C 11.707,3.286 11.755,3.266 11.777,3.255 11.843,3.211 11.799,3.133 11.644,3.023 A 1.134,1.134 0 0 0 11.503,2.973 2.386,2.386 0 0 1 11.312,2.907 1.055,1.055 0 0 1 11.137,2.815 C 11.077,2.776 11.049,2.732 11.054,2.682 a 0.45,0.45 0 0 1 0.092,-0.19 c 0.066,-0.056 0.174,-0.078 0.323,-0.067 0.15,0.01 0.263,0.038 0.34,0.083 0.3,0.166 0.344,0.316 0.134,0.448 0.11,0.011 0.244,0.056 0.399,0.133 0.154,0.078 0.215,0.16 0.182,0.25 0.089,-0.167 0.177,-0.25 0.266,-0.25 0.055,0.011 0.108,0.086 0.158,0.224 0.05,0.139 0.08,0.213 0.09,0.225 0.09,0.121 0.178,0.149 0.267,0.083 0.088,-0.067 0.18,-0.164 0.274,-0.291 0.094,-0.127 0.146,-0.185 0.157,-0.174 -0.11,-0.044 -0.122,-0.089 -0.033,-0.133 0.166,-0.1 0.316,-0.128 0.449,-0.083 a 0.63,0.63 0 0 1 0.132,0.15 c 0.1,0.199 0.083,0.293 -0.05,0.282 0.1,0.088 0.141,0.2 0.125,0.332 -0.017,0.133 -0.103,0.194 -0.258,0.182 a 0.59,0.59 0 0 1 -0.24,-0.083 0.746,0.746 0 0 0 -0.242,-0.09 c -0.055,-0.007 -0.133,0.024 -0.232,0.09 -0.044,0.056 -0.103,0.15 -0.175,0.283 a 1.271,1.271 0 0 1 -0.19,0.282 c -0.167,0.166 -0.444,0.227 -0.831,0.183 0.033,0 0.03,0.033 -0.009,0.1 a 3.376,3.376 0 0 1 -0.274,0.365 0.847,0.847 0 0 0 -0.199,0.382 c 0,0.022 -0.005,0.097 -0.017,0.224 a 0.835,0.835 0 0 1 -0.066,0.29 c 0.133,-0.033 0.238,0.034 0.315,0.2 0.067,0.155 0.067,0.238 0,0.25 0.366,-0.056 0.687,-0.034 0.964,0.066 0.399,0.144 0.626,0.288 0.681,0.432 0.066,-0.1 0.227,-0.106 0.482,-0.017 0.1,0.055 0.187,0.221 0.265,0.498 0.045,0.166 0.12,0.31 0.225,0.432 0.105,0.121 0.218,0.155 0.34,0.1 l 0.05,-0.034 c 0.044,-0.022 0.08,-0.041 0.108,-0.058 a 0.702,0.702 0 0 0 0.09,-0.066 C 15.18,7.687 15.2,7.662 15.205,7.64 15.21,7.618 15.202,7.596 15.18,7.574 A 0.6,0.6 0 0 1 15.006,7.3 0.35,0.35 0 0 1 15.031,6.992 c 0.033,-0.044 0.122,-0.11 0.266,-0.2 C 15.441,6.704 15.529,6.616 15.562,6.527 15.607,6.383 15.552,6.264 15.396,6.17 15.241,6.076 15.164,5.99 15.164,5.912 c 0,-0.055 0.036,-0.121 0.108,-0.199 0.072,-0.077 0.102,-0.15 0.09,-0.216 A 0.807,0.807 0 0 0 15.305,5.289 1.143,1.143 0 0 1 15.238,5.057 c -0.005,-0.05 0.02,-0.108 0.075,-0.174 0.077,-0.045 0.26,-0.042 0.548,0.008 0.288,0.05 0.476,0.102 0.565,0.157 0.033,0.022 0.105,0.056 0.216,0.1 a 2,2 0 0 1 0.29,0.141 c 0.083,0.05 0.13,0.097 0.142,0.141 h -0.083 a 0.399,0.399 0 0 1 0.14,0.233 c 0.017,0.089 -0.024,0.155 -0.124,0.2 a 0.523,0.523 0 0 1 0.266,0.05 c 0.177,0.066 0.183,0.127 0.017,0.182 0.033,-0.011 0.08,-0.022 0.14,-0.033 a 0.467,0.467 0 0 0 0.224,-0.108 0.274,0.274 0 0 1 0.075,-0.05 0.53,0.53 0 0 1 0.075,-0.017 0.135,0.135 0 0 1 0.1,0.025 c 0.011,0 0.036,-0.028 0.074,-0.083 0.039,-0.055 0.08,-0.11 0.125,-0.166 0.044,-0.055 0.083,-0.083 0.116,-0.083 0.033,0 0.063,0.014 0.09,0.042 0.029,0.027 0.05,0.058 0.067,0.091 0.017,0.033 0.033,0.07 0.05,0.108 0.017,0.039 0.03,0.07 0.042,0.091 a 0.442,0.442 0 0 0 0.157,0.174 c 0.083,0.061 0.136,0.12 0.158,0.175 0.011,0.033 0.033,0.116 0.066,0.25 0.033,0.132 0.078,0.223 0.133,0.273 0.055,0.05 0.138,0.091 0.249,0.125 0.022,0.01 0.072,0.005 0.15,-0.017 a 0.398,0.398 0 0 1 0.19,-0.017 c 0.05,0.011 0.075,0.056 0.075,0.133 0.066,-0.066 0.1,-0.11 0.1,-0.133 a 0.7,0.7 0 0 0 0.108,0.35 c 0.06,0.088 0.157,0.127 0.29,0.115 l -0.033,0.366 c -0.033,0.055 -0.116,0.096 -0.25,0.124 a 0.908,0.908 0 0 0 -0.248,0.075 c -0.033,0.011 -0.114,0.077 -0.241,0.2 -0.128,0.121 -0.18,0.193 -0.158,0.215 -0.188,-0.21 -0.47,-0.271 -0.847,-0.182 -0.42,0.066 -0.709,0.132 -0.863,0.199 -0.177,0.089 -0.3,0.172 -0.366,0.249 A 0.522,0.522 0 0 0 17.08,8.702 3.023,3.023 0 0 1 16.997,8.885 c -0.028,0.055 -0.052,0.083 -0.074,0.083 0.066,-0.01 0.14,-0.064 0.224,-0.158 a 0.961,0.961 0 0 1 0.158,-0.157 c 0.287,-0.189 0.525,-0.255 0.715,-0.198 0.243,0.066 0.282,0.155 0.116,0.265 -0.022,0.022 -0.08,0.03 -0.175,0.025 a 0.598,0.598 0 0 0 -0.19,0.009 c 0.1,0.022 0.182,0.052 0.249,0.09 0.066,0.04 0.083,0.092 0.05,0.159 0.177,0.1 0.21,0.21 0.1,0.332 a 0.6,0.6 0 0 1 -0.515,0.182 c 0.033,0 0.033,0.023 0,0.067 L 17.372,9.767 C 17.35,9.777 17.278,9.805 17.156,9.85 a 0.564,0.564 0 0 0 -0.25,0.149 0.332,0.332 0 0 0 -0.049,0.2 0.882,0.882 0 0 1 -0.017,0.199 c -0.01,0.044 -0.055,0.055 -0.132,0.033 -0.034,0.067 -0.136,0.12 -0.308,0.158 -0.171,0.038 -0.285,0.097 -0.34,0.174 0.066,0.089 0.061,0.177 -0.017,0.266 -0.133,0.11 -0.249,0.1 -0.348,-0.033 -0.056,0.022 -0.097,0.077 -0.125,0.166 -0.028,0.088 -0.07,0.15 -0.124,0.182 0.077,0.122 0.066,0.211 -0.033,0.266 a 0.23,0.23 0 0 1 0.074,0.033 c 0.039,0.022 0.08,0.05 0.125,0.083 0.044,0.034 0.071,0.05 0.083,0.05 -0.045,0.1 -0.106,0.15 -0.183,0.15 0.066,0.177 -0.017,0.37 -0.249,0.58 a 0.763,0.763 0 0 1 -0.208,0.134 3,3 0 0 1 -0.258,0.108 0.542,0.542 0 0 0 -0.132,0.058 c -0.111,0.1 -0.194,0.202 -0.25,0.307 A 0.359,0.359 0 0 0 14.39,13.42 c 0.04,0.1 0.142,0.166 0.308,0.2 l 0.016,0.133 v 0.298 l 0.017,0.133 c 0.011,0.078 0.02,0.147 0.025,0.208 0.005,0.061 0.005,0.138 0,0.233 -0.005,0.094 -0.03,0.146 -0.075,0.157 -0.044,0.012 -0.105,0 -0.182,-0.033 -0.09,-0.044 -0.194,-0.288 -0.316,-0.73 a 1.109,1.109 0 0 0 -0.2,-0.4 0.5,0.5 0 0 1 -0.14,0.109 c -0.04,0.016 -0.067,0.02 -0.083,0.008 a 1.094,1.094 0 0 1 -0.092,-0.075 1.11,1.11 0 0 0 -0.116,-0.09 0.882,0.882 0 0 0 -0.29,-0.084 c -0.139,-0.022 -0.225,-0.05 -0.258,-0.083 -0.266,0.2 -0.427,0.15 -0.482,-0.149 -0.022,0.055 -0.02,0.13 0.008,0.224 0.028,0.094 0.042,0.147 0.042,0.158 -0.077,0.144 -0.2,0.155 -0.365,0.033 -0.067,-0.066 -0.219,-0.074 -0.457,-0.025 -0.238,0.05 -0.396,0.058 -0.473,0.025 0.01,0 0.033,0.017 0.066,0.05 a 0.453,0.453 0 0 1 0.067,0.05 0.209,0.209 0 0 1 -0.05,0.1 c -0.023,0.021 -0.045,0.03 -0.067,0.024 a 0.169,0.169 0 0 0 -0.075,0 0.28,0.28 0 0 0 -0.074,0.025 c -0.045,0.033 -0.1,0.091 -0.166,0.174 a 0.826,0.826 0 0 1 -0.15,0.158 c 0.066,0.177 0.097,0.313 0.092,0.406 a 5.004,5.004 0 0 1 -0.05,0.416 c -0.028,0.182 -0.042,0.33 -0.042,0.44 0,0.177 0.053,0.382 0.158,0.614 0.105,0.233 0.23,0.393 0.373,0.482 0.078,0.044 0.211,0.072 0.4,0.083 0.187,0.011 0.32,0 0.398,-0.033 a 0.409,0.409 0 0 0 0.149,-0.116 0.562,0.562 0 0 0 0.083,-0.191 c 0.022,-0.083 0.039,-0.141 0.05,-0.174 0.077,-0.211 0.221,-0.322 0.431,-0.333 0.134,-0.01 0.23,0.003 0.291,0.042 0.061,0.038 0.086,0.09 0.075,0.157 a 0.835,0.835 0 0 1 -0.066,0.208 3.508,3.508 0 0 1 -0.125,0.241 0.918,0.918 0 0 0 -0.09,0.2 2.768,2.768 0 0 0 -0.059,0.374 c -0.017,0.16 -0.03,0.257 -0.042,0.29 0.023,0.011 0.106,0.017 0.25,0.017 0,-0.022 0.008,-0.058 0.024,-0.108 a 0.472,0.472 0 0 0 0.025,-0.091 c 0.056,0.088 0.144,0.138 0.266,0.149 0.122,0.011 0.21,-0.033 0.266,-0.133 0.022,0.033 0.089,0.117 0.2,0.25 0.11,0.132 0.171,0.243 0.182,0.332 0.011,0.044 0.033,0.116 0.066,0.216 0.034,0.1 0.045,0.169 0.034,0.208 -0.011,0.038 -0.067,0.058 -0.166,0.058 -0.044,0 -0.072,0.016 -0.083,0.05 a 0.226,0.226 0 0 0 0,0.124 1.08,1.08 0 0 0 0.108,0.282 c 0.028,0.05 0.041,0.08 0.041,0.091 0.2,0.365 0.47,0.465 0.814,0.3 0,0.32 -0.078,0.497 -0.233,0.53 -0.087,0.022 -0.187,-0.034 -0.297,-0.166 z m 0.249,3.752 a 1.33,1.33 0 0 1 -0.032,-0.265 c -0.012,-0.09 0.027,-0.208 0.116,-0.357 0.088,-0.15 0.132,-0.263 0.132,-0.34 -0.177,-0.045 -0.243,-0.19 -0.2,-0.433 0.023,-0.166 0.183,-0.387 0.482,-0.664 0.211,-0.188 0.277,-0.454 0.2,-0.797 A 4.592,4.592 0 0 1 15.214,19.73 5.65,5.65 0 0 0 15.147,19.15 c 0,0.032 0.053,0.063 0.158,0.09 0.105,0.028 0.169,0.064 0.191,0.108 0.022,-0.033 0.05,-0.094 0.083,-0.182 a 0.845,0.845 0 0 1 0.1,-0.2 0.565,0.565 0 0 1 0.14,-0.125 c 0.073,-0.05 0.12,-0.08 0.142,-0.09 0.021,-0.012 0.072,-0.048 0.149,-0.109 0.077,-0.06 0.141,-0.107 0.191,-0.14 a 0.552,0.552 0 0 1 0.2,-0.075 c 0.083,-0.017 0.14,0.008 0.174,0.074 0.055,0.067 0.044,0.17 -0.033,0.308 -0.078,0.138 -0.078,0.235 0,0.29 0.01,-0.033 0.022,-0.105 0.033,-0.216 a 0.402,0.402 0 0 1 0.1,-0.249 0.378,0.378 0 0 1 0.19,-0.116 0.237,0.237 0 0 1 0.166,0.025 c 0.05,0.028 0.108,0.066 0.174,0.116 0.067,0.05 0.128,0.08 0.183,0.091 0.166,0.056 0.366,0.177 0.598,0.366 -0.01,-0.012 -0.01,-0.025 0,-0.042 a 0.175,0.175 0 0 1 0.067,-0.05 c 0.033,-0.016 0.063,-0.033 0.09,-0.05 a 0.465,0.465 0 0 1 0.092,-0.04 l 0.05,-0.017 A 0.57,0.57 0 0 0 18.551,18.9 c 0.033,-0.011 0.08,0 0.14,0.033 a 1.132,1.132 0 0 1 0.241,0.166 c 0.056,0.044 0.095,0.078 0.116,0.1 l 0.183,0.116 c 0.089,0.055 0.158,0.1 0.208,0.132 0.05,0.033 0.094,0.084 0.132,0.15 a 0.328,0.328 0 0 1 0.042,0.216 c 0.067,0.011 0.2,0.055 0.399,0.132 a 0.596,0.596 0 0 0 0.207,0.058 c 0.106,0.017 0.175,0.042 0.208,0.075 -1.604,1.695 -3.548,2.741 -5.828,3.14 z"
         id="path6"
         inkscape:connector-curvature="0"
         style="fill:#2b3239;fill-rule:nonzero;stroke-width:0.59500003" />
    </g>
    <path
       d="M 0,0 H 32 V 32 H 0 Z"
       id="path10"
       inkscape:connector-curvature="0" />
  </g>
</svg>
