<?xml version="1.0" encoding="UTF-8"?>
<svg width="36px" height="36px" viewBox="0 0 36 36" version="1.1" xmlns="http://www.w3.org/2000/svg" xmlns:xlink="http://www.w3.org/1999/xlink">
    <!-- Generator: sketchtool 52.5 (67469) - http://www.bohemiancoding.com/sketch -->
    <title>0350DF07-89C1-473A-920F-6799D7FDF52B</title>
    <desc>Created with sketchtool.</desc>
    <defs>
        <polygon id="path-1" points="0.00421875 16.1361499 36 16.1361499 36 36 0.00421875 36"></polygon>
    </defs>
    <g id="Symbols" stroke="none" stroke-width="1" fill="none" fill-rule="evenodd">
        <g id="ic/account">
            <g id="relationship">
                <g id="Group">
                    <path d="M18,1.40625 C20.8690313,1.40625 23.203125,3.74034375 23.203125,6.609375 C23.203125,7.50628125 22.9749609,8.350875 22.5737578,9.0883125 C22.2131953,8.45880469 21.5890313,7.99298438 20.835,7.85235938 L20.6166094,7.81164844 C20.6746875,7.59142969 20.7059063,7.36045313 20.7059063,7.12230469 L20.7059063,6.49567969 C20.7059063,5.00350781 19.4919609,3.78963281 17.9998594,3.78963281 C16.5077578,3.78963281 15.2938125,5.00357813 15.2938125,6.49567969 L15.2938125,7.12230469 C15.2938125,7.36052344 15.3250313,7.59142969 15.3831094,7.81164844 L15.1647188,7.85235938 C14.4108281,7.99298438 13.7867344,8.45866406 13.4261016,9.08796094 C13.0248984,8.35066406 12.796875,7.50614063 12.796875,6.609375 C12.796875,3.74034375 15.1309688,1.40625 18,1.40625 Z M19.2995859,7.12223438 C19.2995859,7.83892969 18.7164844,8.42203125 17.9997891,8.42203125 C17.2830938,8.42203125 16.6999922,7.83892969 16.6999922,7.12223438 L16.6999922,6.49560938 C16.6999922,5.77891406 17.2830938,5.1958125 17.9997891,5.1958125 C18.7164844,5.1958125 19.2995859,5.77891406 19.2995859,6.49560938 L19.2995859,7.12223438 Z M14.49675,10.4528672 L14.49675,10.3491563 C14.49675,9.80346094 14.8860703,9.33482813 15.4224844,9.23477344 L16.153875,9.09836719 C16.6376953,9.5506875 17.2868203,9.82835156 17.9997891,9.82835156 C18.7128281,9.82835156 19.3618828,9.5506875 19.8457734,9.09836719 L20.5770938,9.23477344 C21.1135078,9.33482813 21.5028281,9.80346094 21.5028281,10.3491563 L21.5028281,10.4532891 C20.5776563,11.2971094 19.3478906,11.8125 18,11.8125 C16.6518984,11.8125 15.4219922,11.2969688 14.49675,10.4528672 Z M18,13.21875 C18.9523125,13.21875 19.8580078,13.0159688 20.6767266,12.6518203 L24.4188281,19.1333672 C24.5491172,19.3589297 24.7853672,19.485 25.0284375,19.485 C25.1476875,19.485 25.268625,19.454625 25.3792969,19.3907109 C25.7156016,19.1965781 25.8308438,18.7665469 25.6366406,18.4302422 L21.8934141,11.9467266 C23.5385859,10.7433281 24.609375,8.7991875 24.609375,6.609375 C24.609375,2.9649375 21.6444375,1.24344979e-14 18,1.24344979e-14 C14.3555625,1.24344979e-14 11.390625,2.9649375 11.390625,6.609375 C11.390625,10.2538125 14.3555625,13.21875 18,13.21875 Z" id="Fill-1" fill="#2E3842" fill-rule="nonzero"></path>
                    <mask id="mask-2" fill="white">
                        <use xlink:href="#path-1"></use>
                    </mask>
                    <g id="Clip-3"></g>
                    <path d="M25.887375,33.2341172 L25.887375,33.1304062 C25.887375,32.5847109 26.2766953,32.1160781 26.8131094,32.0160234 L27.5445,31.8796172 C28.0283203,32.3319375 28.6774453,32.6096016 29.3904141,32.6096016 C30.1034531,32.6096016 30.7525078,32.3319375 31.2363984,31.8796172 L31.9677188,32.0160234 C32.5041328,32.1160781 32.8934531,32.5847109 32.8934531,33.1304062 L32.8934531,33.2345391 C31.9682813,34.0783594 30.7385156,34.59375 29.390625,34.59375 C28.0425234,34.59375 26.8126172,34.0782187 25.887375,33.2341172 Z M28.0906172,29.9034844 L28.0906172,29.2768594 C28.0906172,28.5601641 28.6737188,27.9770625 29.3904141,27.9770625 C30.1071094,27.9770625 30.6902109,28.5601641 30.6902109,29.2768594 L30.6902109,29.9034844 C30.6902109,30.6201797 30.1071094,31.2032812 29.3904141,31.2032812 C28.6737188,31.2032812 28.0906172,30.62025 28.0906172,29.9034844 Z M29.390625,24.1875 C32.2596563,24.1875 34.59375,26.5215937 34.59375,29.390625 C34.59375,30.2875312 34.3655859,31.132125 33.9643828,31.8695625 C33.6038203,31.2400547 32.9796563,30.7742344 32.225625,30.6336094 L32.0072344,30.5928984 C32.0653125,30.3726797 32.0965313,30.1417031 32.0965313,29.9035547 L32.0965313,29.2769297 C32.0965313,27.7847578 30.8825859,26.5708828 29.3904844,26.5708828 C27.8983828,26.5708828 26.6844375,27.7848281 26.6844375,29.2769297 L26.6844375,29.9035547 C26.6844375,30.1417734 26.7156563,30.3726797 26.7737344,30.5928984 L26.5553438,30.6336094 C25.8014531,30.7742344 25.1773594,31.2399141 24.8167266,31.8692109 C24.4155234,31.1319141 24.1875,30.2873906 24.1875,29.390625 C24.1875,26.5215937 26.5215938,24.1875 29.390625,24.1875 Z M29.390625,22.78125 C25.9837031,22.78125 23.1708516,25.3724766 22.8186563,28.6875 L18.3984609,28.6875 C18.0101953,28.6875 17.6953359,29.0022891 17.6953359,29.390625 C17.6953359,29.7789609 18.0101953,30.09375 18.3984609,30.09375 L22.8186563,30.09375 C23.1708516,33.4087734 25.9837031,36 29.390625,36 C33.0350625,36 36,33.0350625 36,29.390625 C36,25.7461875 33.0350625,22.78125 29.390625,22.78125 Z" id="Fill-2" fill="#2E3842" fill-rule="nonzero" mask="url(#mask-2)"></path>
                    <path d="M11.1831328,31.8695625 C10.8225703,31.2400547 10.1984063,30.7742344 9.444375,30.6336094 L9.22598437,30.5928984 C9.2840625,30.3726797 9.31528125,30.1417031 9.31528125,29.9035547 L9.31528125,29.2769297 C9.31528125,27.7847578 8.10133594,26.5708828 6.60923438,26.5708828 C5.11713281,26.5708828 3.9031875,27.7848281 3.9031875,29.2769297 L3.9031875,29.9035547 C3.9031875,30.1417734 3.93440625,30.3726797 3.99248438,30.5928984 L3.77409375,30.6336094 C3.02020313,30.7742344 2.39610937,31.2399141 2.03547656,31.8692109 C1.63427344,31.1319141 1.40625,30.2873906 1.40625,29.390625 C1.40625,26.5215938 3.74034375,24.1875 6.609375,24.1875 C9.47840625,24.1875 11.8125,26.5215938 11.8125,29.390625 C11.8125,30.2875313 11.5843359,31.132125 11.1831328,31.8695625 Z M7.90896094,29.9034844 C7.90896094,30.6201797 7.32585937,31.2032813 6.60916406,31.2032813 C5.89246875,31.2032813 5.30936719,30.6201797 5.30936719,29.9034844 L5.30936719,29.2768594 C5.30936719,28.5601641 5.89246875,27.9770625 6.60916406,27.9770625 C7.32585937,27.9770625 7.90896094,28.5601641 7.90896094,29.2768594 L7.90896094,29.9034844 Z M3.106125,33.2341172 L3.106125,33.1304063 C3.106125,32.5847109 3.49544531,32.1160781 4.03185938,32.0160234 L4.76325,31.8796172 C5.24707031,32.3319375 5.89619531,32.6096016 6.60916406,32.6096016 C7.32220313,32.6096016 7.97125781,32.3319375 8.45514844,31.8796172 L9.18646875,32.0160234 C9.72288281,32.1160781 10.1122031,32.5847109 10.1122031,33.1304063 L10.1122031,33.2345391 C9.18703125,34.0783594 7.95726563,34.59375 6.609375,34.59375 C5.26127344,34.59375 4.03136719,34.0782188 3.106125,33.2341172 Z M9.17564062,23.299875 L12.7026562,17.1909141 C12.8968594,16.8546094 12.7816172,16.4245781 12.4453125,16.2304453 C12.1089375,16.0363125 11.6790469,16.1515547 11.4848437,16.4877891 L7.79020312,22.8870703 C7.40692969,22.8176719 7.01233594,22.78125 6.609375,22.78125 C2.9649375,22.78125 0,25.7461875 0,29.390625 C0,33.0350625 2.9649375,36 6.609375,36 C10.2538125,36 13.21875,33.0350625 13.21875,29.390625 C13.21875,26.6558203 11.5491094,24.3036563 9.17564062,23.299875 Z" id="Fill-4" fill="#2E3842" fill-rule="nonzero" mask="url(#mask-2)"></path>
                    <path d="M15.7267969,28.6875 C15.541875,28.6875 15.3604688,28.7627344 15.2296875,28.8935156 C15.0982031,29.0242969 15.0236719,29.2057031 15.0236719,29.390625 C15.0236719,29.5755469 15.0982031,29.7569531 15.2296875,29.8877344 C15.3604688,30.0185156 15.541875,30.09375 15.7267969,30.09375 C15.9117188,30.09375 16.093125,30.0185156 16.2239063,29.8877344 C16.3546172,29.7569531 16.4299219,29.5755469 16.4299219,29.390625 C16.4299219,29.2057031 16.3546875,29.0242969 16.2239063,28.8935156 C16.093125,28.7627344 15.9117188,28.6875 15.7267969,28.6875" id="Fill-6" fill="#2E3842" fill-rule="nonzero" mask="url(#mask-2)"></path>
                    <path d="M25.5002344,21.0114844 C25.5002344,21.1964062 25.5754688,21.3778125 25.70625,21.5085937 C25.8370313,21.639375 26.0184375,21.7146094 26.2033594,21.7146094 C26.3889844,21.7146094 26.5696875,21.639375 26.7004688,21.5085937 C26.8318828,21.3771094 26.9064844,21.1964062 26.9064844,21.0114844 C26.9064844,20.8265625 26.8318828,20.6451562 26.7004688,20.514375 C26.5696875,20.3835937 26.3889141,20.3083594 26.2033594,20.3083594 C26.0184375,20.3083594 25.8370313,20.3835937 25.70625,20.514375 C25.5754688,20.6451562 25.5002344,20.8258594 25.5002344,21.0114844" id="Fill-7" fill="#2E3842" fill-rule="nonzero" mask="url(#mask-2)"></path>
                    <path d="M13.4457891,13.7939063 C13.2608672,13.7939063 13.0794609,13.8691406 12.94875,13.9999219 C12.8179687,14.1314063 12.7426641,14.3121094 12.7426641,14.4977344 C12.7426641,14.6826563 12.8178984,14.8633594 12.94875,14.9941406 C13.0794609,15.125625 13.2608672,15.2008594 13.4457891,15.2008594 C13.6307109,15.2008594 13.8121172,15.125625 13.9428984,14.9941406 C14.0736797,14.8633594 14.1489141,14.6826563 14.1489141,14.4977344 C14.1489141,14.3121094 14.07375,14.1314063 13.9428984,13.9999219 C13.8121172,13.8691406 13.6307109,13.7939063 13.4457891,13.7939063" id="Fill-8" fill="#2E3842" fill-rule="nonzero" mask="url(#mask-2)"></path>
                </g>
                <g id="Group-5" transform="translate(0.000000, 16.101562)"></g>
            </g>
        </g>
    </g>
</svg>