<?xml version="1.0" encoding="UTF-8"?>
<svg width="36px" height="36px" viewBox="0 0 36 36" version="1.1" xmlns="http://www.w3.org/2000/svg" xmlns:xlink="http://www.w3.org/1999/xlink">
    <!-- Generator: sketchtool 52.5 (67469) - http://www.bohemiancoding.com/sketch -->
    <title>845A4A78-0ACE-4442-BC33-F46E6C00F5CE</title>
    <desc>Created with sketchtool.</desc>
    <defs>
        <polygon id="path-1" points="-1.83836713e-15 0 35.995592 0 35.995592 35.995246 -1.83836713e-15 35.995246"></polygon>
    </defs>
    <g id="Symbols" stroke="none" stroke-width="1" fill="none" fill-rule="evenodd">
        <g id="ic/last-block">
            <g id="360">
                <g id="Group-7">
                    <mask id="mask-2" fill="white">
                        <use xlink:href="#path-1"></use>
                    </mask>
                    <g id="Clip-2"></g>
                    <g id="Group-11" mask="url(#mask-2)" fill="#2E3842" fill-rule="nonzero">
                        <g transform="translate(4.000000, 3.000000)">
                            <path d="M12.7773438,8.16878814 C12.7773438,8.56655932 13.100877,8.88912712 13.5,8.88912712 C13.899123,8.88912712 14.2226562,8.56655932 14.2226562,8.16878814 L14.2226562,6.5964322 C14.2226562,6.19866102 13.899123,5.87609322 13.5,5.87609322 C13.100877,5.87609322 12.7773438,6.19866102 12.7773438,6.5964322 L12.7773438,8.16878814" id="Fill-5"></path>
                            <path d="M12.0487617,14.6265551 L10.8078164,15.3406992 C10.4621699,15.5396568 10.3437266,15.9801441 10.5433242,16.3246822 C10.6771602,16.5557669 10.9200449,16.6849958 11.1697949,16.6849958 C11.2923574,16.6849958 11.4166543,16.6538051 11.5304727,16.5883263 L12.7773437,15.8707966 L12.7773437,27.2734746 L2.87059375,21.5721356 L3.55400977,21.1788305 C3.89965625,20.9798729 4.01809961,20.5393856 3.81850195,20.1948475 C3.61897656,19.8503093 3.177,19.7321737 2.83135352,19.9312034 L2.14786523,20.3245085 L2.14786523,8.92226271 L12.0487617,14.6265551 Z M24.8520625,20.3245085 L24.1685742,19.9312034 C23.8229277,19.7323898 23.3810234,19.8503814 23.1814258,20.1948475 C22.9818281,20.5393856 23.1002715,20.9798729 23.445918,21.1788305 L24.129334,21.5721356 L14.2226562,27.2734746 L14.2226562,15.8707966 L15.4695273,16.5883263 C15.5833457,16.6538051 15.7075703,16.6849958 15.8302051,16.6849958 C16.0799551,16.6849958 16.3228398,16.5557669 16.4566758,16.3246822 C16.6562734,15.9801441 16.5378301,15.5396568 16.1921836,15.3406992 L14.9512383,14.6265551 L24.8520625,8.92226271 L24.8520625,20.3245085 Z M13.5,3.51251695 C13.899123,3.51251695 14.2226562,3.18994915 14.2226562,2.79217797 L14.2226562,1.97279237 L24.1297676,7.67434746 L14.2226562,13.3822415 L14.2226562,11.9730424 C14.2226562,11.5752712 13.899123,11.2527034 13.5,11.2527034 C13.100877,11.2527034 12.7773437,11.5752712 12.7773437,11.9730424 L12.7773437,13.3822415 L2.87023242,7.67434746 L12.7773437,1.97279237 L12.7773437,2.79217797 C12.7773437,3.18994915 13.100877,3.51251695 13.5,3.51251695 Z M1.06395312,22.1959492 L13.1386719,29.1449873 C13.2504668,29.2093856 13.3751973,29.2415127 13.5,29.2415127 C13.6248027,29.2415127 13.7495332,29.2093856 13.8613281,29.1449873 L25.9360469,22.1959492 C26.1596367,22.0672966 26.297375,21.8294407 26.297375,21.5721356 L26.297375,7.67413136 C26.297375,7.41682627 26.1596367,7.17897034 25.9360469,7.0503178 L13.8613281,0.101279661 C13.6377383,-0.0274449153 13.3622617,-0.0274449153 13.1386719,0.101279661 L1.06395312,7.0503178 C0.840363281,7.17897034 0.702625,7.41682627 0.702625,7.67413136 L0.702625,21.5721356 C0.702625,21.8294407 0.840291016,22.0672966 1.06395312,22.1959492 Z" id="Fill-6"></path>
                            <path d="M18.774668,18.4904534 L20.1407773,19.2766314 C20.2545957,19.3421102 20.3788203,19.3733008 20.5014551,19.3733008 C20.7512051,19.3733008 20.9940898,19.244072 21.1279258,19.0129873 C21.3275234,18.6684492 21.2090801,18.2279619 20.8634336,18.0290042 L19.4973242,17.2428263 C19.1516055,17.0439407 18.7097734,17.1620042 18.5101758,17.5064703 C18.3105781,17.8510085 18.4290938,18.2915678 18.774668,18.4904534" id="Fill-8"></path>
                            <path d="M6.49854492,19.3733008 C6.62110742,19.3733008 6.7454043,19.3421102 6.85922266,19.2766314 L8.22533203,18.4904534 C8.57097852,18.2914958 8.68942187,17.8510085 8.48982422,17.5064703 C8.29022656,17.1619322 7.84832227,17.0438686 7.50267578,17.2428263 L6.13656641,18.0290042 C5.79091992,18.2279619 5.67247656,18.6684492 5.87207422,19.0129873 C6.00591016,19.244072 6.24879492,19.3733008 6.49854492,19.3733008" id="Fill-9"></path>
                        </g>
                    </g>
                </g>
            </g>
        </g>
    </g>
</svg>