<?xml version="1.0" encoding="UTF-8"?>
<svg width="37px" height="36px" viewBox="0 0 37 36" version="1.1" xmlns="http://www.w3.org/2000/svg" xmlns:xlink="http://www.w3.org/1999/xlink">
    <!-- Generator: sketchtool 52.5 (67469) - http://www.bohemiancoding.com/sketch -->
    <title>52A4098F-3C56-43FE-903E-C27A70A394CC</title>
    <desc>Created with sketchtool.</desc>
    <g id="Symbols" stroke="none" stroke-width="1" fill="none" fill-rule="evenodd">
        <g id="ic/cids" fill-rule="nonzero">
            <g id="content" transform="translate(-0.000000, 0.000000)">
                <rect id="Rectangle" x="0" y="0" width="36.083333" height="36"></rect>
                <path d="M35.5013438,6.77419355 L30.2634406,6.77419355 L30.2634406,1.69354839 C30.2634406,0.759946744 29.4799717,0 28.5174729,0 L7.56586015,0 C6.60336132,0 5.81989242,0.759946744 5.81989242,1.69354839 L5.81989242,6.77419355 L0.581989242,6.77419355 C0.260019626,6.77419355 0,7.02723353 0,7.33870968 L0,27.6612903 C0,27.9727665 0.260019626,28.2258065 0.581989242,28.2258065 L14.549731,28.2258065 L14.549731,30.483871 L11.6397848,30.483871 C10.0353359,30.483871 8.72983863,31.7501732 8.72983863,33.3064516 L8.72983863,34.4354839 C8.72983863,34.74696 8.98985825,35 9.31182787,35 L26.7715051,35 C27.0934747,35 27.3534944,34.74696 27.3534944,34.4354839 L27.3534944,33.3064516 C27.3534944,31.7501732 26.0479971,30.483871 24.4435482,30.483871 L21.533602,30.483871 L21.533602,28.2258065 L35.5013438,28.2258065 C35.8233134,28.2258065 36.083333,27.9727665 36.083333,27.6612903 L36.083333,7.33870968 C36.083333,7.02723353 35.8233134,6.77419355 35.5013438,6.77419355 Z M7.56586015,22.5806452 L28.5174729,22.5806452 C29.4799717,22.5806452 30.2634406,21.8206984 30.2634406,20.8870968 L30.2634406,10.1612903 L32.5913975,10.1612903 L32.5913975,24.8387097 L3.49193545,24.8387097 L3.49193545,10.1612903 L5.81989242,10.1612903 L5.81989242,20.8870968 C5.81989242,21.8206984 6.60336132,22.5806452 7.56586015,22.5806452 Z M6.9838709,5.64516129 L29.0994621,5.64516129 L29.0994621,20.8870968 C29.0994621,21.1980217 28.8385899,21.4516129 28.5174729,21.4516129 L7.56586015,21.4516129 C7.24474307,21.4516129 6.9838709,21.1980217 6.9838709,20.8870968 L6.9838709,5.64516129 Z M7.56586015,1.12903226 L28.5174729,1.12903226 C28.8385899,1.12903226 29.0994621,1.38262349 29.0994621,1.69354839 L29.0994621,4.51612903 L6.9838709,4.51612903 L6.9838709,1.69354839 C6.9838709,1.38262349 7.24474307,1.12903226 7.56586015,1.12903226 Z M26.1895159,33.3064516 L26.1895159,33.8709677 L9.89381711,33.8709677 L9.89381711,33.3064516 C9.89381711,32.37285 10.677286,31.6129032 11.6397848,31.6129032 L24.4435482,31.6129032 C25.406047,31.6129032 26.1895159,32.37285 26.1895159,33.3064516 Z M20.3696235,30.483871 L15.7137095,30.483871 L15.7137095,28.2258065 L20.3696235,28.2258065 L20.3696235,30.483871 Z M34.9193545,27.0967742 L1.16397848,27.0967742 L1.16397848,7.90322581 L5.81989242,7.90322581 L5.81989242,9.03225806 L2.90994621,9.03225806 C2.58797659,9.03225806 2.32795697,9.28529804 2.32795697,9.59677419 L2.32795697,25.4032258 C2.32795697,25.714702 2.58797659,25.9677419 2.90994621,25.9677419 L33.1733868,25.9677419 C33.4953564,25.9677419 33.755376,25.714702 33.755376,25.4032258 L33.755376,9.59677419 C33.755376,9.28529804 33.4953564,9.03225806 33.1733868,9.03225806 L30.2634406,9.03225806 L30.2634406,7.90322581 L34.9193545,7.90322581 L34.9193545,27.0967742 Z" id="Shape" fill="#2E3842"></path>
                <polygon id="Path" fill="#2E3842" points="8.14784939 2.25806452 9.31182787 2.25806452 9.31182787 3.38709677 8.14784939 3.38709677"></polygon>
                <polygon id="Path" fill="#2E3842" points="10.4758064 2.25806452 11.6397848 2.25806452 11.6397848 3.38709677 10.4758064 3.38709677"></polygon>
                <polygon id="Path" fill="#2E3842" points="12.8037633 2.25806452 13.9677418 2.25806452 13.9677418 3.38709677 12.8037633 3.38709677"></polygon>
                <polygon id="Path" fill="#2E3842" points="15.1317203 2.25806452 27.9354836 2.25806452 27.9354836 3.38709677 15.1317203 3.38709677"></polygon>
                <path d="M11.3527687,13.4750662 C11.4419994,13.5241305 11.5408921,13.5483871 11.6397848,13.5483871 C11.7435085,13.5483871 11.846948,13.5219254 11.9395889,13.4676238 L14.8495351,11.7740754 C15.0240182,11.6723632 15.1317203,11.4885097 15.1317203,11.2903226 C15.1317203,11.0921355 15.0240182,10.9082819 14.8495351,10.8065697 L11.9395889,9.11302134 C11.7591381,9.00800151 11.5354928,9.00579637 11.3527687,9.10557897 C11.1700445,9.20563727 11.0577956,9.39362558 11.0577956,9.59677419 L11.0577956,12.983871 C11.0577956,13.1870196 11.1700445,13.3750079 11.3527687,13.4750662 Z M12.2217741,10.5937736 L13.419001,11.2903226 L12.2217741,11.9868716 L12.2217741,10.5937736 Z" id="Shape" fill="#2E3842"></path>
                <path d="M12.8037633,15.8064516 C15.3709951,15.8064516 17.4596773,13.7804782 17.4596773,11.2903226 C17.4596773,8.800167 15.3709951,6.77419355 12.8037633,6.77419355 C10.2365315,6.77419355 8.14784939,8.800167 8.14784939,11.2903226 C8.14784939,13.7804782 10.2365315,15.8064516 12.8037633,15.8064516 Z M12.8037633,7.90322581 C14.7296134,7.90322581 16.2956988,9.42229242 16.2956988,11.2903226 C16.2956988,13.1583527 14.7296134,14.6774194 12.8037633,14.6774194 C10.8779132,14.6774194 9.31182787,13.1583527 9.31182787,11.2903226 C9.31182787,9.42229242 10.8779132,7.90322581 12.8037633,7.90322581 Z" id="Shape" fill="#2E3842"></path>
                <polygon id="Path" fill="#2E3842" points="18.6236557 6.77419355 27.9354836 6.77419355 27.9354836 7.90322581 18.6236557 7.90322581"></polygon>
                <polygon id="Path" fill="#2E3842" points="18.6236557 9.03225806 27.9354836 9.03225806 27.9354836 10.1612903 18.6236557 10.1612903"></polygon>
                <polygon id="Path" fill="#2E3842" points="18.6236557 11.2903226 27.9354836 11.2903226 27.9354836 12.4193548 18.6236557 12.4193548"></polygon>
                <polygon id="Path" fill="#2E3842" points="18.6236557 13.5483871 27.9354836 13.5483871 27.9354836 14.6774194 18.6236557 14.6774194"></polygon>
                <polygon id="Path" fill="#2E3842" points="18.6236557 15.8064516 24.4435482 15.8064516 24.4435482 16.9354839 18.6236557 16.9354839"></polygon>
                <polygon id="Path" fill="#2E3842" points="18.6236557 18.0645161 24.4435482 18.0645161 24.4435482 19.1935484 18.6236557 19.1935484"></polygon>
            </g>
        </g>
    </g>
</svg>