<?xml version="1.0" encoding="UTF-8"?>
<svg width="36px" height="36px" viewBox="0 0 36 36" version="1.1" xmlns="http://www.w3.org/2000/svg" xmlns:xlink="http://www.w3.org/1999/xlink">
    <!-- Generator: sketchtool 52.5 (67469) - http://www.bohemiancoding.com/sketch -->
    <title>76989035-6FE7-409C-8063-48F5B9AFB865</title>
    <desc>Created with sketchtool.</desc>
    <g id="Symbols" stroke="none" stroke-width="1" fill="none" fill-rule="evenodd">
        <g id="ic/delay" fill-rule="nonzero">
            <g id="hourglass">
                <rect id="Rectangle" x="0" y="0" width="36" height="36"></rect>
                <g id="Group-12" transform="translate(7.000000, 0.000000)" fill="#2E3842">
                    <path d="M10.7294373,22.668438 C11.1214848,22.668438 11.4399901,22.3546861 11.4399901,21.967708 C11.4399901,21.5810803 11.1214848,21.2669781 10.7294373,21.2669781 C10.3370344,21.2669781 10.0188844,21.5810803 10.0188844,21.967708 C10.0188844,22.3546861 10.3370344,22.668438 10.7294373,22.668438 Z" id="Fill-1"></path>
                    <path d="M14.614918,17.3596204 C16.2635783,16.371854 17.6285504,14.9813431 18.5621281,13.3383066 C19.4808729,11.7212847 19.9666246,9.89176642 19.9666246,8.04727007 L19.9666246,4.1189781 C20.7937082,3.82948905 21.3877304,3.05080292 21.3877304,2.13722628 L21.3877304,0.735766423 C21.3877304,0.348788321 21.0695804,0.0350364964 20.6771775,0.0350364964 L0.781696983,0.0350364964 C0.389294157,0.0350364964 0.0711441068,0.348788321 0.0711441068,0.735766423 L0.0711441068,2.13722628 C0.0711441068,3.05080292 0.665077492,3.82948905 1.49224986,4.1189781 L1.49224986,8.04727007 C1.49224986,9.89176642 1.97800157,11.7212847 2.89665762,13.3383066 C3.8303241,14.9813431 5.19520736,16.3722044 6.84395649,17.3596204 C7.05490187,17.4858394 7.18084737,17.7155036 7.18084737,17.9738102 C7.18084737,18.2321168 7.05490187,18.4613431 6.84395649,18.5879124 C5.19520736,19.5754161 3.8303241,20.965927 2.89665762,22.6093139 C1.97800157,24.2259854 1.49224986,26.0557664 1.49224986,27.9003504 L1.49224986,31.8286423 C0.665077492,32.1176934 0.0711441068,32.8968175 0.0711441068,33.8103942 L0.0711441068,35.211854 C0.0711441068,35.5988321 0.389294157,35.9125839 0.781696983,35.9125839 L20.6771775,35.9125839 C21.0695804,35.9125839 21.3877304,35.5988321 21.3877304,35.211854 L21.3877304,33.8103942 C21.3877304,32.8968175 20.7937082,32.1176934 19.9666246,31.8286423 L19.9666246,27.9003504 C19.9666246,26.0557664 19.4808729,24.2259854 18.5621281,22.6093139 C17.6285504,20.965927 16.2632231,19.5754161 14.6145627,18.5876496 C14.4039726,18.4613431 14.2780271,18.2317664 14.2780271,17.9738102 C14.2780271,17.7155036 14.4039726,17.4858394 14.614918,17.3596204 Z M1.49224986,1.43649635 L19.9666246,1.43649635 L19.9666246,2.13722628 C19.9666246,2.52385401 19.647764,2.8379562 19.2560718,2.8379562 L2.20280274,2.8379562 C1.81075519,2.8379562 1.49224986,2.52385401 1.49224986,2.13722628 L1.49224986,1.43649635 Z M19.9666246,34.5111241 L1.49224986,34.5111241 L1.49224986,33.8103942 C1.49224986,33.4236788 1.81075519,33.1096642 2.20280274,33.1096642 L19.2560718,33.1096642 C19.647764,33.1096642 19.9666246,33.4236788 19.9666246,33.8103942 L19.9666246,34.5111241 Z M13.8772753,19.7854599 C16.7999569,21.5366715 18.5455189,24.5704818 18.5455189,27.9003504 L18.5455189,31.7082044 L2.91335561,31.7082044 L2.91335561,27.9003504 C2.91335561,24.5704818 4.65847348,21.5366715 7.58151037,19.7854599 C8.22065269,19.4029489 8.60195312,18.7255182 8.60195312,17.9738102 C8.60195312,17.2217518 8.22065269,16.5442336 7.58151037,16.162073 C4.65847348,14.4105985 2.91335561,11.3770511 2.91335561,8.04727007 L2.91335561,4.23941606 L18.5455189,4.23941606 L18.5455189,8.04727007 C18.5455189,11.3770511 16.7999569,14.4105985 13.8772753,16.162073 C13.2382218,16.5442336 12.8569214,17.2217518 12.8569214,17.9738102 C12.8569214,18.7255182 13.2382218,19.4029489 13.8772753,19.7854599 Z" id="Fill-2"></path>
                    <path d="M11.2956591,24.3125255 C11.1613646,24.136292 10.9511298,24.0323212 10.7276609,24.0323212 L10.7269503,24.0323212 C10.5039255,24.0323212 10.2936907,24.1355912 10.1593962,24.3114745 C9.89151778,24.6628905 9.55809084,24.9615766 9.16817495,25.2000876 C8.35423663,25.6835036 7.62734103,25.9856934 6.98544533,26.2524964 C5.56300729,26.8440876 4.33446137,27.3552701 4.33446137,29.2976934 L4.33446137,29.6060146 C4.33446137,29.9929927 4.65261142,30.3067445 5.04501424,30.3067445 L16.4138603,30.3067445 C16.8062631,30.3067445 17.1244131,29.9929927 17.1244131,29.6060146 L17.1244131,29.2976934 C17.1244131,27.3563212 15.8927586,26.8431241 14.467123,26.2487299 C13.8200758,25.9787737 13.0866076,25.6732555 12.2625439,25.1839708 C11.8847962,24.9527299 11.5596295,24.6594745 11.2956591,24.3125255 Z M15.6751517,28.9052847 L5.78327868,28.9052847 C5.89154918,28.2575474 6.33910867,28.0423358 7.53781137,27.543854 C8.19045419,27.2724964 9.00226085,26.9347445 9.90537356,26.3982482 C9.90750521,26.3965839 9.90990333,26.3951825 9.91239027,26.3938686 C10.2069144,26.214219 10.4792338,26.0085547 10.7266839,25.7793285 C10.9677389,26.0031241 11.2321534,26.2029197 11.5177069,26.3774015 C11.520105,26.3788029 11.5225031,26.3804672 11.52499,26.3818686 C12.437784,26.9237956 13.2558968,27.2653139 13.9133359,27.5393869 C15.1172789,28.0412847 15.5666148,28.2575474 15.6751517,28.9052847 Z" id="Fill-3"></path>
                    <path d="M17.1244131,8.05138686 L17.1244131,6.76213139 C17.1244131,6.50724088 16.9842566,6.27249635 16.7583896,6.14934307 C16.5321673,6.02548905 16.2562952,6.0330219 16.0370896,6.16782482 C14.4438524,7.14981022 12.6088496,7.66878832 10.7294373,7.66878832 C8.85038017,7.66878832 7.01466682,7.14981022 5.42142963,6.16782482 C5.20213525,6.0330219 4.92635191,6.02583942 4.70048492,6.14934307 C4.47461792,6.27249635 4.33446137,6.50724088 4.33446137,6.76213139 L4.33446137,8.05138686 C4.33446137,9.26321168 4.80911069,10.5678832 5.70662779,11.8235912 C6.57643333,13.0405839 7.78312975,14.1276788 9.19624179,14.9675912 C9.48321633,15.1438248 9.76423999,15.3932847 10.0188844,15.6950365 L10.0188844,19.1647883 C10.0188844,19.5521168 10.3370344,19.8655182 10.7294373,19.8655182 C11.1214848,19.8655182 11.4399901,19.5521168 11.4399901,19.1647883 L11.4399901,15.696438 C11.6991643,15.3911825 11.9898692,15.1355912 12.2906996,14.9519124 C15.1818504,13.2318832 17.1244131,10.4594453 17.1244131,8.05138686 Z M11.5534121,13.7533139 C11.5513693,13.7550657 11.5485271,13.7560292 11.5464842,13.757781 C11.2630625,13.9305985 10.9886114,14.1444088 10.7318354,14.3901022 C10.4826978,14.149927 10.2183721,13.943562 9.94116766,13.7741606 C9.93868072,13.7724964 9.93592733,13.7710949 9.93352921,13.769781 C7.43442593,12.2851095 5.75556712,9.98724088 5.75556712,8.05138686 L5.75556712,7.9480292 C7.30190782,8.6850219 8.99915218,9.07024818 10.7294373,9.07024818 C12.4592782,9.07024818 14.1569667,8.6850219 15.7033074,7.9480292 L15.7033074,8.05138686 C15.7033074,9.95675912 13.9966482,12.3015766 11.5534121,13.7533139 Z" id="Fill-4"></path>
                </g>
            </g>
        </g>
    </g>
</svg>