<svg xmlns="http://www.w3.org/2000/svg" xmlns:xlink="http://www.w3.org/1999/xlink" width="24" height="24" viewBox="0 0 24 24">
    <defs>
        <path id="a" d="M.03.065h15.641v14.922H.031z"/>
    </defs>
    <g fill="none" fill-rule="evenodd">
        <g transform="translate(7.282 8.962)">
            <mask id="b" fill="#fff">
                <use xlink:href="#a"/>
            </mask>
            <path fill="#FFF" d="M7.292 13.54a6.036 6.036 0 0 1-3.029-.847 5.826 5.826 0 0 1-2.796-4.977c0-3.22 2.615-5.832 5.846-5.832 3.23 0 5.845 2.612 5.846 5.831v.002l-.002.08a5.842 5.842 0 0 1-5.865 5.742M15.067.071c-.339-.05-.667.213-.729.608-.082.496-.153 1.002-.235 1.508-.111.688-.222 1.375-.343 2.14A7.283 7.283 0 0 0 7.313.446a7.274 7.274 0 0 0-5.837 2.92A7.12 7.12 0 0 0 .366 5.53l-.015.05a7.194 7.194 0 0 0-.189.763l-.007.042C.075 6.817.03 7.26.03 7.716c0 4.02 3.261 7.271 7.282 7.271 4.006 0 7.258-3.228 7.28-7.228.335-2.296.716-4.582 1.069-6.868.061-.425-.185-.76-.595-.82" mask="url(#b)"/>
        </g>
        <path fill="#FFF" d="M16.686 3.153l.03-.06a3.04 3.04 0 0 1 2.71-1.645c1.682 0 3.035 1.347 3.035 2.998.01 1.65-1.353 2.997-3.035 2.997a3.043 3.043 0 0 1-2.12-.853 3.129 3.129 0 0 1-.906-2.155c-.009-.449.095-.884.284-1.28l.002-.002zM7.046 6.43c2.462-1.063 4.923-2.116 7.385-3.18.255-.116.52-.223.812-.347-.18.477-.279.994-.279 1.532 0 2.43 2 4.405 4.462 4.405.891 0 1.722-.26 2.42-.706 1.435-.891 2.246-2.511 2.02-4.306C23.509.952 20.38-.8 17.683.365c-2.051.89-4.102 1.772-6.154 2.653-1.672.719-3.354 1.438-5.025 2.157-.277.111-.482.283-.513.587-.062.567.482.911 1.056.668zM5.62 10.464c0 .04-.004.078-.006.116-.002.035-.004.07-.008.104a2.034 2.034 0 0 1-.022.142l-.008.048a2.089 2.089 0 0 1-2.048 1.642 2.075 2.075 0 0 1-2.092-2.065c0-1.145.933-2.066 2.092-2.066 1.145 0 2.069.9 2.09 2.025l.002.054m1.436-.023c0-1.763-1.325-3.219-3.046-3.45a3.182 3.182 0 0 0-.638-.03c-.033.001-.065.004-.098.006h-.002C1.441 7.097 0 8.602 0 10.441c0 1.023.447 1.944 1.16 2.581.295.324.613.632.912.953a491.193 491.193 0 0 0 3.18 3.352c.317.334.697.364.984.1.318-.293.318-.668-.01-1.022-.123-.142-.257-.273-.39-.415a1468.53 1468.53 0 0 0-1.96-2.056c.053-.017.088-.03.119-.041 1.728-.226 3.061-1.685 3.061-3.452"/>
    </g>
</svg>
