<svg xmlns="http://www.w3.org/2000/svg" xmlns:xlink="http://www.w3.org/1999/xlink" width="32" height="45" viewBox="0 0 43 43">
    <defs>
        <circle id="b" cx="12" cy="12" r="12"/>
        <filter id="a" width="200%" height="200%" x="-50%" y="-50%" filterUnits="objectBoundingBox">
            <feOffset in="SourceAlpha" result="shadowOffsetOuter1"/>
            <feGaussianBlur in="shadowOffsetOuter1" result="shadowBlurOuter1" stdDeviation="4"/>
            <feColorMatrix in="shadowBlurOuter1" values="0 0 0 0 0.305882353 0 0 0 0 0.839215686 0 0 0 0 0.682352941 0 0 0 1 0"/>
        </filter>
    </defs>
    <g fill="none" fill-rule="evenodd">
        <g fill="" transform="translate(8 7.704)">
            <use filter="url(#a)" xlink:href="#b"/>
            <use xlink:href="#b"/>
        </g>
        <path fill="#4ED6AE" fill-rule="nonzero" d="M30.367 13.674a11.937 11.937 0 0 0-4.362-4.362c-1.837-1.072-3.842-1.608-6.017-1.608-2.175 0-4.18.536-6.018 1.608a11.934 11.934 0 0 0-4.362 4.362C8.536 15.511 8 17.517 8 19.691c0 2.175.536 4.18 1.608 6.018a11.94 11.94 0 0 0 4.362 4.362c1.837 1.072 3.843 1.608 6.017 1.608 2.175 0 4.181-.536 6.018-1.608a11.934 11.934 0 0 0 4.362-4.362c1.072-1.837 1.607-3.843 1.607-6.018 0-2.174-.535-4.18-1.607-6.017zM21.487 26c-.105-.125-.14-.23-.11-.313-.01.052-.046.099-.109.14a1.489 1.489 0 0 0-.28-.233 1.473 1.473 0 0 1-.282-.235 14.591 14.591 0 0 1-.226-.359 1.572 1.572 0 0 1-.125-.242c-.026-.068-.028-.107-.008-.117-.197.084-.483.026-.858-.172-.073-.041-.182-.15-.328-.327-.145-.177-.296-.255-.452-.235-.052.01-.123.029-.211.055a.816.816 0 0 1-.226.039.712.712 0 0 1-.25-.063 2.013 2.013 0 0 1-.336-.179 2.237 2.237 0 0 0-.288-.164l-.203-.109-.25-.125a.767.767 0 0 1-.195-.148.495.495 0 0 1-.133-.21 3.005 3.005 0 0 1-.078-.375c-.03-.188-.073-.323-.125-.406a1.407 1.407 0 0 0-.265-.312c-.114-.104-.218-.156-.312-.156.083 0 .083-.07 0-.211a1.581 1.581 0 0 0-.219-.304 19.546 19.546 0 0 1-.453-.5 1.248 1.248 0 0 1-.187-.289c-.052-.11-.062-.2-.03-.273.01-.01 0-.026-.032-.047a.809.809 0 0 0-.117-.062 2.683 2.683 0 0 0-.133-.055.307.307 0 0 0-.093-.023c.02.042.044.117.07.226.026.11.055.19.086.242.02.042.109.193.265.453.27.437.395.76.375.968-.063.02-.104.01-.125-.031a.568.568 0 0 1-.047-.172.981.981 0 0 0-.031-.156c-.032-.063-.112-.13-.242-.203-.13-.073-.211-.146-.242-.219.01 0 .023-.005.039-.016a.075.075 0 0 1 .039-.015c.01-.093-.044-.213-.164-.36-.12-.145-.169-.249-.148-.311-.084-.063-.156-.185-.219-.367-.062-.182-.114-.3-.156-.351a.668.668 0 0 0-.156-.164 3.08 3.08 0 0 0-.234-.156 6.805 6.805 0 0 1-.187-.117.601.601 0 0 1-.125-.14c-.344-.417-.448-.64-.312-.672-.136.032-.248-.07-.336-.304-.088-.234-.117-.414-.086-.539l-.031-.015c.01-.042.016-.164.016-.367 0-.203.013-.388.039-.554.026-.167.075-.25.148-.25-.073.01-.127-.055-.164-.195-.036-.14-.039-.237-.008-.289.01-.031.058-.01.14.063.084.072.13.12.141.14.136-.073.188-.167.156-.281-.02-.042-.13-.15-.327-.328-.448-.291-.677-.432-.687-.421.062-.115.046-.214-.047-.297-.104.062-.164.078-.18.047a.604.604 0 0 1-.039-.172c-.01-.083-.036-.13-.078-.14-.052-.01-.114-.052-.187-.125a9.85 9.85 0 0 1 3.668-3.465c.062-.01.177-.016.343-.016.083.01.161.037.234.078.073.042.149.1.227.172.078.073.138.125.18.156.02-.063-.006-.156-.079-.281.02-.063.135-.125.343-.187.24-.032.396-.027.469.015a4.106 4.106 0 0 0-.312-.39l-.078.078c-.084-.073-.302-.036-.656.11-.02.01-.073.038-.156.085-.083.047-.151.08-.203.101a.385.385 0 0 1-.187.016c.5-.27.988-.484 1.467-.64.031.02.083.065.156.133.073.067.13.117.172.148-.032-.02-.052-.01-.063.031-.041.125-.041.229 0 .312a.29.29 0 0 0 .21.125c.09.01.196.005.32-.016.126-.02.21-.03.25-.03l.157.015c.333.031.463 0 .39-.094.031.042.068.128.11.258.04.13.088.221.14.273.052-.042.062-.115.03-.219-.03-.104-.03-.177 0-.218.011-.02.042-.042.094-.063l.18-.07a2.06 2.06 0 0 0 .133-.054c.062-.042.02-.115-.125-.219a1.066 1.066 0 0 0-.133-.047 2.243 2.243 0 0 1-.18-.062.992.992 0 0 1-.163-.086c-.057-.036-.083-.078-.078-.125a.422.422 0 0 1 .086-.18c.062-.051.164-.072.304-.062.14.01.247.036.32.078.281.156.323.297.125.422.104.01.23.052.375.124.145.073.202.151.171.235.084-.156.167-.235.25-.235.052.01.102.081.148.211.047.13.076.2.086.211.083.114.166.14.25.078.083-.063.17-.154.257-.273.089-.12.138-.174.149-.164-.104-.041-.115-.083-.031-.125.155-.094.296-.12.42-.078.032.02.074.068.125.14.094.188.078.276-.046.266a.34.34 0 0 1 .117.312c-.016.125-.097.182-.242.172a.554.554 0 0 1-.227-.078.701.701 0 0 0-.226-.086c-.052-.005-.125.023-.219.086-.041.052-.096.14-.164.265a1.195 1.195 0 0 1-.18.265c-.155.157-.416.214-.78.172.031 0 .029.031-.008.094a3.173 3.173 0 0 1-.257.343.796.796 0 0 0-.188.36c0 .02-.005.09-.015.21a.785.785 0 0 1-.063.273c.125-.031.224.031.297.187.062.146.062.224 0 .235.343-.052.645-.032.905.062.375.135.589.27.64.406.063-.094.213-.1.453-.016.094.052.176.208.25.468.041.156.112.292.21.406.1.115.206.146.32.094l.047-.031c.042-.021.076-.04.102-.055a.66.66 0 0 0 .085-.062c.032-.027.05-.05.055-.07.005-.021-.003-.042-.023-.063a.564.564 0 0 1-.164-.257.328.328 0 0 1 .023-.29c.031-.041.115-.103.25-.187.135-.083.219-.166.25-.25.042-.135-.01-.247-.156-.335-.146-.089-.219-.17-.219-.242 0-.052.034-.115.101-.188.068-.072.097-.14.086-.202a.758.758 0 0 0-.054-.196 1.074 1.074 0 0 1-.063-.218c-.005-.047.019-.102.07-.164.073-.042.245-.04.515.008.27.047.448.096.531.148.032.02.1.052.203.094.104.04.195.085.274.132.077.047.122.09.132.133h-.078a.375.375 0 0 1 .133.218c.015.084-.024.146-.117.188a.491.491 0 0 1 .25.047c.166.062.171.12.015.171.031-.01.075-.02.133-.031a.439.439 0 0 0 .21-.101.257.257 0 0 1 .07-.047.498.498 0 0 1 .07-.016.127.127 0 0 1 .094.024c.01 0 .034-.027.07-.078a3.04 3.04 0 0 1 .117-.156c.042-.052.078-.078.11-.078.03 0 .06.012.085.039a.328.328 0 0 1 .062.085c.016.032.031.066.047.102.016.036.029.065.04.086.02.052.07.106.147.163a.419.419 0 0 1 .148.164c.01.031.031.11.063.235.03.124.073.21.125.257a.61.61 0 0 0 .234.117c.02.01.067.005.14-.015a.374.374 0 0 1 .18-.016c.047.01.07.052.07.125.062-.063.093-.105.093-.125.01.135.044.244.102.328.057.083.148.12.273.109l-.031.343c-.031.052-.11.091-.235.117a.853.853 0 0 0-.234.07c-.03.01-.106.073-.226.188-.12.114-.169.182-.148.203-.177-.198-.443-.255-.796-.172-.396.063-.666.125-.812.187-.166.084-.28.162-.343.234a.49.49 0 0 0-.055.11c-.026.062-.052.12-.078.171-.026.052-.049.078-.07.078.063-.01.133-.06.21-.148a.903.903 0 0 1 .15-.148c.27-.177.493-.24.671-.186.229.062.265.146.11.25-.021.02-.076.028-.165.023a.562.562 0 0 0-.18.008c.095.02.173.05.235.086.063.036.078.086.047.148.166.094.198.198.094.312a.564.564 0 0 1-.484.172c.031 0 .031.02 0 .062l-.266.172c-.02.01-.088.036-.202.078a.53.53 0 0 0-.235.14.312.312 0 0 0-.046.188.829.829 0 0 1-.016.187c-.01.042-.052.052-.125.032-.031.062-.127.111-.289.148-.16.036-.267.09-.32.163.063.084.058.167-.015.25-.125.104-.234.094-.328-.03-.052.02-.091.072-.117.155-.026.084-.065.14-.117.172.073.114.062.198-.03.25.01 0 .033.01.069.03.036.022.075.048.117.079.042.031.067.047.078.047-.042.093-.099.14-.172.14.063.167-.015.349-.234.546a.717.717 0 0 1-.195.125c-.089.042-.17.076-.242.102a.51.51 0 0 0-.125.054c-.104.094-.182.19-.234.289a.337.337 0 0 0-.024.289c.037.094.133.156.29.187l.015.125v.281l.015.125c.01.073.019.138.024.195.005.058.005.13 0 .219-.005.088-.029.138-.07.148-.042.01-.099 0-.172-.031-.083-.042-.182-.271-.297-.687a1.042 1.042 0 0 0-.187-.375.47.47 0 0 1-.133.102c-.036.015-.062.018-.077.007a1.028 1.028 0 0 1-.086-.07 1.042 1.042 0 0 0-.11-.085.829.829 0 0 0-.273-.078c-.13-.021-.21-.047-.242-.078-.25.187-.4.14-.453-.14-.02.051-.018.122.008.21.026.089.04.138.04.148-.073.136-.188.146-.344.032-.062-.063-.206-.07-.43-.024-.223.047-.371.055-.444.024.01 0 .031.015.062.046.032.02.053.037.063.047a.196.196 0 0 1-.047.094c-.021.02-.042.028-.063.023a.159.159 0 0 0-.07 0 .263.263 0 0 0-.07.023.964.964 0 0 0-.156.164.777.777 0 0 1-.14.148c.062.167.09.294.085.383-.005.088-.02.218-.047.39-.026.171-.039.31-.039.414 0 .166.05.359.149.577.098.219.215.37.35.453.074.041.199.067.375.077.177.011.302 0 .375-.03a.384.384 0 0 0 .14-.11.528.528 0 0 0 .078-.18 3.2 3.2 0 0 1 .047-.163c.073-.198.208-.302.406-.312.125-.01.216.003.273.039.058.036.08.086.07.148a.785.785 0 0 1-.062.195c-.031.068-.07.143-.117.227a.863.863 0 0 0-.085.187c-.021.083-.04.2-.055.352-.016.15-.029.242-.04.273.022.01.1.015.235.015a.37.37 0 0 1 .023-.101.444.444 0 0 0 .023-.086c.053.084.136.13.25.14.115.011.198-.03.25-.124.021.031.084.11.188.234.104.125.161.229.172.312.01.042.03.11.062.203.031.094.042.159.031.196-.01.036-.062.054-.156.054-.041 0-.068.016-.078.047a.213.213 0 0 0 0 .117 1.05 1.05 0 0 0 .101.265c.027.047.04.075.04.086.187.343.442.437.764.28 0 .302-.072.469-.218.5-.083.02-.176-.032-.28-.156zm.233 3.526a1.25 1.25 0 0 1-.03-.25c-.01-.083.026-.195.109-.335s.125-.247.125-.32c-.167-.042-.23-.177-.188-.406.021-.156.172-.364.453-.624.198-.177.26-.427.187-.75a4.316 4.316 0 0 1-.078-.593 5.31 5.31 0 0 0-.063-.546c0 .031.05.06.149.086.099.025.159.06.18.1a.945.945 0 0 0 .077-.17.794.794 0 0 1 .094-.188.531.531 0 0 1 .133-.117c.067-.047.111-.076.132-.086.02-.01.068-.044.14-.101.073-.058.133-.102.18-.133a.519.519 0 0 1 .187-.07c.079-.016.133.008.164.07.052.063.042.159-.031.289-.073.13-.073.221 0 .274.01-.032.02-.1.031-.204a.378.378 0 0 1 .094-.234.355.355 0 0 1 .18-.11.222.222 0 0 1 .155.024c.047.026.102.062.164.11a.44.44 0 0 0 .172.085c.156.052.343.166.562.343-.01-.01-.01-.023 0-.039a.164.164 0 0 1 .062-.047c.031-.015.06-.03.086-.046a.437.437 0 0 1 .086-.039l.046-.016a.536.536 0 0 0 .156-.015c.031-.01.076 0 .133.031a1.064 1.064 0 0 1 .226.156c.052.041.089.073.109.093.031.02.088.058.171.11.084.052.149.093.196.124a.41.41 0 0 1 .124.14c.037.063.05.13.04.204.062.01.187.051.374.124a.56.56 0 0 0 .196.055c.098.015.163.039.195.07-1.508 1.593-3.335 2.576-5.478 2.95z"/>
    </g>
</svg>
