<svg xmlns="http://www.w3.org/2000/svg" width="24" height="24" viewBox="0 0 24 24">
    <g fill="none" fill-rule="evenodd">
        <g fill-rule="nonzero">
            <path fill="#469EA2" d="M2.034 17.878l9.543 5.938 9.543-5.938V6L11.577.061 2.034 6z"/>
            <path fill="#6ACAD1" d="M10.6 1.482l-6.93 4.31a2.4 2.4 0 0 1 0 .404l6.919 4.31a1.558 1.558 0 0 1 1.965 0l6.92-4.31a2.4 2.4 0 0 1 0-.404l-6.908-4.31a1.558 1.558 0 0 1-1.966 0zm9.543 5.902l-6.93 4.359c.077.775-.317 1.516-.977 1.837l.012 8.571c.112.053.218.119.318.196l6.918-4.31c-.077-.776.318-1.517.978-1.837V7.58a2.235 2.235 0 0 1-.319-.196zm-17.132.049a1.74 1.74 0 0 1-.318.196v8.62c.669.31 1.067 1.058.977 1.837l6.919 4.31c.1-.077.206-.143.318-.196v-8.62c-.669-.31-1.067-1.059-.977-1.837L3.01 7.433z"/>
            <path fill="#469EA2" d="M11.577 1.347L20.11 6.66v10.617l-8.532 5.314-8.532-5.314V6.649l8.532-5.302zm0-1.261L2.034 6.024v11.878l9.543 5.939 9.543-5.939V6.024L11.577.086z"/>
            <path fill="#469EA2" d="M11.645 13.96h-.136c-.473 0-.928-.202-1.262-.562a1.996 1.996 0 0 1-.522-1.361v-.147c0-.51.187-1 .522-1.361.334-.36.789-.563 1.262-.562h.136c.474-.001.928.201 1.263.562.335.36.522.85.521 1.36v.148c.001.51-.186 1-.521 1.36-.335.361-.79.563-1.263.562zm0 7.897h-.136c-.645-.002-1.24.373-1.556.98l1.624 1.004 1.625-1.004c-.316-.607-.911-.982-1.557-.98zm9.487-5.939h-.068c-.474 0-.928.201-1.263.562-.335.36-.522.85-.521 1.36v.148c-.002.326.077.647.227.93l1.625-1.016v-1.984zM19.507 5.02a2 2 0 0 0-.227.931v.147c-.001.51.186 1 .521 1.36.335.362.79.564 1.263.562h.068V6.024L19.507 5.02zM11.577.086L9.953 1.09c.314.61.909.99 1.556.992h.136c.646.002 1.241-.373 1.557-.98L11.577.086zM3.66 5.008L2.034 6.024V8.02h.068c.474.002.928-.2 1.263-.561.335-.361.522-.85.52-1.361v-.147a2.162 2.162 0 0 0-.226-.943zm-1.557 10.91h-.068v1.984l1.625 1.016a2 2 0 0 0 .227-.93v-.147c.001-.51-.186-1-.521-1.361a1.716 1.716 0 0 0-1.263-.562z"/>
            <path fill="#083B54" fill-opacity=".15" d="M11.577 23.902v-11.89L2.034 6.073v11.89z"/>
            <path fill="#083B54" fill-opacity=".05" d="M21.132 17.853V5.976l-9.543 5.938v11.89z"/>
        </g>
        <path d="M0 0h24v24H0z"/>
    </g>
</svg>
