<?xml version="1.0" encoding="UTF-8"?>
<svg width="36px" height="36px" viewBox="0 0 36 36" version="1.1" xmlns="http://www.w3.org/2000/svg" xmlns:xlink="http://www.w3.org/1999/xlink">
    <!-- Generator: sketchtool 52.5 (67469) - http://www.bohemiancoding.com/sketch -->
    <title>0C403C42-B630-49D8-8216-369F38184B5E</title>
    <desc>Created with sketchtool.</desc>
    <defs>
        <polygon id="path-1" points="-1.83859315e-15 0 36 0 36 35.0312178 -1.83859315e-15 35.0312178"></polygon>
    </defs>
    <g id="Symbols" stroke="none" stroke-width="1" fill="none" fill-rule="evenodd">
        <g id="ic/links">
            <g id="chain">
                <mask id="mask-2" fill="white">
                    <use xlink:href="#path-1"></use>
                </mask>
                <g id="Clip-2"></g>
                <path d="M28.2907788,8.4736183 C26.0122065,6.25645423 22.3043999,6.25662907 20.0256929,8.4736183 L16.1157378,12.2780737 C15.5006675,12.8764768 15.0399038,13.5848487 14.7520894,14.3574272 C13.9554448,14.6398231 13.2223198,15.0934661 12.619019,15.6802866 L8.70906396,19.484742 C6.43031201,21.7018624 6.43031201,25.3092832 8.70906396,27.5264473 C9.84823779,28.6350074 11.3448999,29.189222 12.8415171,29.189222 C14.3381343,29.189222 15.8347964,28.6350074 16.9739702,27.5264473 L20.884105,23.7219918 C21.4989956,23.1237636 21.9596245,22.4156977 22.247394,21.643294 C23.0523042,21.3593683 23.7694819,20.9148166 24.3808237,20.319779 L28.2909585,16.5153235 C30.5695308,14.298378 30.5695308,10.6907824 28.2907788,8.4736183 Z M16.1157378,20.319779 C16.5493237,20.7415153 17.0471479,21.0925324 17.5877827,21.3617722 L14.1130308,24.7428305 C13.4118003,25.4248903 12.2710542,25.4248903 11.5698237,24.7428305 C10.8688179,24.0605522 10.8688179,22.9506371 11.5698237,22.2683588 L15.042689,18.8893985 C15.3176558,19.4109633 15.6773901,19.8932786 16.1157378,20.319779 Z M19.9304136,22.7942507 L16.0204585,26.5985313 C15.1713003,27.4246956 14.0423237,27.8796935 12.8415171,27.8796935 C11.6407554,27.8796935 10.5117339,27.4246956 9.66257568,26.5985313 C7.90976904,24.8930541 7.90976904,22.1179604 9.66257568,20.4124832 L13.5727104,16.6082025 C13.8301577,16.3575822 14.1115933,16.1419281 14.4145015,15.9623328 C14.4078081,16.0740062 14.4039448,16.1861603 14.4039448,16.2988389 C14.4039448,16.727044 14.4523706,17.1479061 14.546437,17.5556122 L14.5262671,17.5361622 L10.616312,21.3404428 C9.38936084,22.5343643 9.38936084,24.476825 10.616312,25.6705716 C11.2297651,26.2674449 12.0355737,26.5658816 12.8415171,26.5658816 C13.6473257,26.5658816 14.453269,26.2674449 15.0667222,25.6705716 L18.9766772,21.8661162 C19.5712183,21.2878624 19.8984741,20.5190427 19.8984741,19.7010518 C19.8984741,18.8832357 19.5712183,18.114416 18.9766772,17.5361622 C18.46623,17.039336 18.3277808,16.3161035 18.5606558,15.6959777 C19.0684526,15.9136861 19.5348765,16.2233993 19.9304136,16.6082025 C20.7795269,17.4344105 21.2469839,18.5327431 21.2469839,19.7010518 C21.2469839,20.8695353 20.7795269,21.9680427 19.9304136,22.7942507 Z M19.4122397,14.6379437 L22.886812,11.2574099 C23.2263765,10.9268917 23.6780659,10.7448926 24.1583257,10.7448926 C24.6385854,10.7448926 25.0902749,10.9268917 25.4298394,11.2574099 C26.1310249,11.9395134 26.1310249,13.0496033 25.4298394,13.7317068 L21.9569741,17.1106671 C21.682187,16.5891022 21.3222729,16.106787 20.884105,15.6802866 C20.4513726,15.2594245 19.9532339,14.907708 19.4122397,14.6379437 Z M27.3372671,15.5875824 L23.4271323,19.391863 C23.1700444,19.6421337 22.888564,19.8574382 22.5853413,20.0372082 C22.5920347,19.9257534 22.5958979,19.8137304 22.5958979,19.7012266 C22.5958979,19.2730216 22.5474722,18.8521595 22.4534058,18.4444534 L22.4735757,18.4639033 L26.3835308,14.6596227 C26.9778921,14.0813689 27.3053276,13.3123744 27.3053276,12.4945583 C27.3053276,11.6767422 26.9778921,10.9077477 26.3835308,10.3294939 C25.7892144,9.75119642 24.9988589,9.43261048 24.1583257,9.43261048 C23.3177925,9.43261048 22.527437,9.75119642 21.9331206,10.3294939 L18.0229858,14.1337745 C16.7960347,15.327696 16.7960347,17.2701567 18.0229858,18.4639033 C18.3626851,18.7944652 18.5497397,19.2339031 18.5497397,19.7012266 C18.5497397,19.9101935 18.5120503,20.113522 18.4402651,20.3040879 C17.932064,20.0865543 17.4658198,19.7777152 17.0692495,19.391863 C16.2203159,18.565655 15.7526792,17.4673225 15.7526792,16.2990138 C15.7526792,15.1305302 16.2203159,14.0321977 17.0692495,13.2059897 L20.9793843,9.40153426 C22.7322358,7.69610077 25.5842358,7.69610077 27.3372671,9.40153426 C29.0900737,11.1070115 29.0900737,13.8821052 27.3372671,15.5875824 Z" id="Fill-1" fill="#2E3842" fill-rule="nonzero" mask="url(#mask-2)"></path>
            </g>
        </g>
    </g>
</svg>