<svg width="100.00000000000001" height="30.000000000000004" xmlns="http://www.w3.org/2000/svg" xmlns:svg="http://www.w3.org/2000/svg">
 <g>
  <title>Layer 1</title>
  <g stroke="null" id="svg_2">
   <path stroke="null" id="svg_1" fill="#36d6ae" fill-rule="evenodd" d="m25.31152,5.29922c-1.77271,0 -3.21094,1.47779 -3.328,3.34728l-3.22766,1.72705a4.93347,5.25238 0 0 0 -3.47852,-1.5134c-0.93652,0 -1.80615,0.28487 -2.54199,0.7656l-4.19763,-3.72118c0.01672,-0.19585 0.05017,-0.3917 0.05017,-0.60536c0,-1.95852 -1.50513,-3.56094 -3.34473,-3.56094s-3.34473,1.60242 -3.34473,3.56094s1.50513,3.56094 3.34473,3.56094c0.40137,0 0.78601,-0.08902 1.13721,-0.23146l4.19763,3.72118c-0.18396,0.58755 -0.31775,1.19291 -0.31775,1.85169c0,1.70925 0.76929,3.22265 1.93994,4.1841l-0.93652,3.00899c-1.52185,0.33829 -2.67578,1.76266 -2.67578,3.48972c0,1.95852 1.50513,3.56094 3.34473,3.56094s3.34473,-1.60242 3.34473,-3.56094c0,-0.90804 -0.33447,-1.72705 -0.85291,-2.35022l0.93652,-3.00899a5.00037,5.3236 0 0 0 4.93347,-5.3236c0,-0.21366 -0.03345,-0.42731 -0.06689,-0.64097l3.24438,-1.72705c0.53516,0.3739 1.15393,0.58755 1.8396,0.58755c1.8396,0 3.34473,-1.60242 3.34473,-3.56094s-1.50513,-3.56094 -3.34473,-3.56094l0,0.00001z"/>
  </g>
  <text xml:space="preserve" text-anchor="middle" font-family="Serif" font-size="24" id="svg_3" y="19.43654" x="64.26963" stroke-linecap="null" stroke-linejoin="null" stroke-dasharray="null" stroke-width="0" fill="#36d6ae">gravity</text>
 </g>
</svg>