<svg xmlns="http://www.w3.org/2000/svg" width="24" height="24" viewBox="0 0 24 24">
    <g fill="none" fill-rule="evenodd">
        <path fill="#FFF" fill-rule="nonzero" d="M.68 17.275a.218.218 0 0 1-.06-.159c.007-.068.275-.596.461-.913.748-1.264 1.812-2.479 3.1-3.537.089-.073.165-.142.17-.154.004-.012.012-.019.018-.017.006.003.105-.067.22-.155a17.25 17.25 0 0 1 2.88-1.782c.32-.16 1.06-.483 1.393-.612l.32-.123.082-.032.429-1.005.66-1.551c.127-.3.245-.564.26-.587.064-.091.081-.092 1.474-.178.774-.048 2.015-.12 2.806-.162.635-.035.666-.033.732.05a.211.211 0 0 1 .037.096c.005.054-.014.098-.498 1.125-.49 1.042-.502 1.07-.485 1.096.01.016.024.028.032.028.007.001.075-.067.151-.149.458-.499 1.12-1.162 1.406-1.406.506-.432 1.2-.763 1.801-.859.15-.023.235-.02.263.01.07.078.002.579-.12.9-.064.17-.133.243-.412.442a.557.557 0 0 0-.106.09c-.014.037.18-.007 1.007-.235 1.006-.276 1.606-.4 2.198-.458.525-.05.8-.01.785.117a1.534 1.534 0 0 1-.08.214c-.139.33-.337.563-1.011 1.188-.475.44-.63.609-.678.733-.043.114-.01.174.124.222.078.028.187.036.88.068.928.043 1.134.06 1.386.114.176.039.283.099.304.172.062.202-.648.581-2.043 1.096-.545.2-.829.324-.894.389-.051.051-.052.052-.04.095.022.073.096.115.383.215.172.06.354.112.576.166.574.137.638.154.77.204.219.084.281.157.235.28-.081.213-.441.46-.934.639-.767.279-1.916.528-3.417.743l-.267.038.023.049.023.047 1.177.32 1.177.32.038.044c.053.061.067.123.044.189-.022.06.018.017-1.048 1.109-.874.893-1.64 1.669-2.086 2.112-.19.187-.253.225-.345.205a130.76 130.76 0 0 1-1.624-.532l-1.566-.52-.33.14a13.815 13.815 0 0 1-3.694.996c-2.318.299-4.933.062-7.324-.663-.465-.14-.724-.232-.763-.272z"/>
        <path d="M7.013-2.08l-9.095 22.211 22.21 9.095 9.095-22.21z"/>
    </g>
</svg>
