<svg xmlns="http://www.w3.org/2000/svg" xmlns:xlink="http://www.w3.org/1999/xlink" width="24" height="24" viewBox="0 0 24 24">
    <defs>
        <path id="a" d="M0 .002h19.825v13.444H0z"/>
    </defs>
    <g fill="none" fill-rule="evenodd">
        <g transform="translate(2 .052)">
            <mask id="b" fill="#fff">
                <use xlink:href="#a"/>
            </mask>
            <path fill="#4ED6AE" d="M19.421 3.343c-.892-.103-1.783-.227-2.678-.3-1.229-.101-2.462-.142-3.683.09-1.114.21-2.045.741-2.69 1.69-.74 1.09-.82 2.28-.412 3.51.068.205.026.293-.132.418-.373.294-.725.617-1.086.928-.05.043-.104.082-.18.142-.018-.095-.03-.154-.038-.214-.154-1.045-.39-2.07-.845-3.028-.158-.333-.278-.628-.016-.954.037-.046.046-.117.062-.177.25-.952.105-1.862-.341-2.72C6.894 1.79 6.062 1.2 5.177.683 4.652.374 4.098.127 3.493.002c-.02.052-.035.085-.046.119-.314.898-.318 1.822-.186 2.747.13.903.391 1.76 1.036 2.446.633.674 1.34 1.202 2.332 1.164.074-.003.187.096.223.175.16.352.308.71.44 1.072.095.261.158.534.23.782-.568-.11-1.096-.208-1.622-.316a.412.412 0 0 1-.202-.116C5.18 7.53 4.524 7.3 3.796 7.231c-.998-.094-1.813.358-2.595.89-.444.303-.844.66-1.201 1.177.444.274.841.573 1.281.781.839.398 1.723.656 2.662.445.852-.193 1.591-.568 1.974-1.43.023-.051.153-.1.213-.083.438.124.874.258 1.305.405.25.086.341.29.35.55.033 1.051.075 2.103.113 3.155.004.104 0 .209 0 .325h.777c0-.752-.002-1.481.003-2.21 0-.113.005-.247.064-.334.438-.65 1.024-1.148 1.68-1.612l.172.218c1.24 1.566 3.155 1.914 4.866.89.733-.438 1.306-1.04 1.784-1.738 1.043-1.524 1.792-3.196 2.458-4.91.04-.105.078-.212.123-.336-.158-.028-.28-.056-.404-.07" mask="url(#b)"/>
        </g>
        <path fill="#4ED6AE" d="M17.103 14.686c-4.407 0-8.813 0-13.22.002-.327 0-.51.14-.51.386-.002.244.185.392.506.399H9.9v.64c-.005.468.105.98-.05 1.391-.154.412-.583.716-.874 1.082-.12.15-.227.158-.39.094A28.84 28.84 0 0 0 7.02 18.1a.496.496 0 0 0-.41.082c-.086.073-.133.27-.098.381.034.113.175.224.295.275.463.193.936.36 1.444.553-.079.098-.126.163-.178.223l-2.661 3.052c-.095.109-.198.212-.278.33-.121.179-.113.368.05.512.17.151.362.141.537-.006.06-.052.109-.12.162-.18l1.45-1.661c.034.134.058.215.075.299.068.352.131.707.203 1.059.058.285.23.428.452.391.241-.04.362-.238.31-.532a89.373 89.373 0 0 0-.32-1.695c-.039-.2-.011-.352.134-.514.643-.716 1.27-1.447 1.904-2.172.062-.07.128-.138.206-.221.22.257.402.505.619.718.21.207.243.431.201.708-.09.605-.158 1.213-.233 1.82-.029.24.1.424.313.458.24.04.418-.09.46-.339.023-.142.038-.285.056-.428l.14-1.09c.115.131.185.21.253.29.703.832 1.403 1.665 2.108 2.495.18.212.413.239.592.083.174-.152.184-.366.018-.578-.116-.148-.244-.288-.365-.433l-.674-.809c.605-.098 1.154-.185 1.703-.276.295-.05.43-.22.384-.476-.04-.228-.234-.337-.516-.293-.639.1-1.28.189-1.915.302-.196.035-.312-.01-.436-.16-.602-.728-1.196-1.465-1.833-2.162-.363-.397-.555-.8-.494-1.349.047-.414.01-.839.01-1.285h6.401c.336-.001.504-.135.508-.39.003-.26-.163-.397-.494-.397"/>
        <path d="M0 0h24v24H0z"/>
    </g>
</svg>
