<svg xmlns="http://www.w3.org/2000/svg" xmlns:xlink="http://www.w3.org/1999/xlink" width="38" height="38" viewBox="0 0 38 38">
    <defs>
        <path id="a" d="M0 0h32v37.412H0z"/>
        <filter id="c" width="133.7%" height="128.1%" x="-16.8%" y="-14.1%" filterUnits="objectBoundingBox">
            <feGaussianBlur in="SourceGraphic" stdDeviation="1.5"/>
        </filter>
    </defs>
    <g fill="none" fill-rule="evenodd" transform="translate(3)">
        <mask id="b" fill="#fff">
            <use xlink:href="#a"/>
        </mask>
        <path fill="#2B3239" stroke="#9D9D9D" d="M28.481 9.036l-9.268-.003c.62-1.4.931-2.627.933-3.682.003-2.3-1.83-4.18-4.096-4.2-2.315-.019-4.192 1.853-4.195 4.185-.002 1.057.309 2.289.93 3.697l-9.273.003c-1.425 0-2.364.84-2.37 2.09-.004 1.25.938 2.101 2.354 2.105 2.506.007 3.284.002 5.79.003 1.594 0 2.36.681 2.377 2.306a20.53 20.53 0 0 1-.266 3.565c-.93 5.573-1.917 9.386-2.877 14.954-.229 1.328.475 2.419 1.662 2.613 1.16.19 2.144-.56 2.376-1.863.526-2.953 1-4.165 1.558-7.112.226-1.192.567-2.37.965-3.516.116-.332.611-.735.93-.732.32.003.781.405.928.744.342.792.614 1.636.77 2.486.612 3.323 1.156 4.907 1.749 8.233.218 1.222 1.24 1.95 2.376 1.76 1.154-.192 1.885-1.285 1.668-2.537-.865-4.993-1.77-8.229-2.594-13.229-.293-1.775-.502-3.579-.56-5.375-.05-1.586.775-2.294 2.29-2.297 1.238-.002 2.476 0 3.715 0l1.204.001c.188 0 .429 0 .955-.003 1.414-.008 2.355-.862 2.345-2.114-.01-1.25-.946-2.082-2.376-2.082" mask="url(#b)"/>
        <path fill="#2B3239" stroke="#36D6AE" d="M28.481 9.036l-9.268-.003c.62-1.4.931-2.627.933-3.682.003-2.3-1.83-4.18-4.096-4.2-2.315-.019-4.192 1.853-4.195 4.185-.002 1.057.309 2.289.93 3.697l-9.273.003c-1.425 0-2.364.84-2.37 2.09-.004 1.25.938 2.101 2.354 2.105 2.506.007 3.284.002 5.79.003 1.594 0 2.36.681 2.377 2.306a20.53 20.53 0 0 1-.266 3.565c-.93 5.573-1.917 9.386-2.877 14.954-.229 1.328.475 2.419 1.662 2.613 1.16.19 2.144-.56 2.376-1.863.526-2.953 1-4.165 1.558-7.112.226-1.192.567-2.37.965-3.516.116-.332.611-.735.93-.732.32.003.781.405.928.744.342.792.614 1.636.77 2.486.612 3.323 1.156 4.907 1.749 8.233.218 1.222 1.24 1.95 2.376 1.76 1.154-.192 1.885-1.285 1.668-2.537-.865-4.993-1.77-8.229-2.594-13.229-.293-1.775-.502-3.579-.56-5.375-.05-1.586.775-2.294 2.29-2.297 1.238-.002 2.476 0 3.715 0l1.204.001c.188 0 .429 0 .955-.003 1.414-.008 2.355-.862 2.345-2.114-.01-1.25-.946-2.082-2.376-2.082" filter="url(#c)" mask="url(#b)"/>
        <path d="M-3 0h38v38H-3z" mask="url(#b)"/>
    </g>
</svg>
