<svg xmlns="http://www.w3.org/2000/svg" xmlns:xlink="http://www.w3.org/1999/xlink" width="32" height="32" viewBox="0 0 32 32">
    <defs>
        <path id="a" d="M.023.044h9.564V15.76H.023z"/>
        <path id="c" d="M.038.044h9.564v15.717H.038z"/>
        <path id="e" d="M.024.035h9.488v13.193H.024z"/>
        <path id="g" d="M.048.014h9.406v13.082H.048z"/>
    </defs>
    <g fill="none" fill-rule="evenodd">
        <path fill="#FEFEFE" d="M15.587.066c-.087 0-.108.07-.142.125L12.55 4.964c-1.728 2.85-3.458 5.697-5.18 8.55-.455.752-.95 1.483-1.347 2.267-.093.205.118.213.214.271 2.568 1.56 5.138 3.117 7.714 4.667.536.322 1.043.69 1.625.94.152 0 .25-.107.363-.176 1.427-.859 2.852-1.721 4.277-2.583 1.581-.956 3.164-1.91 4.741-2.872.082-.05.284-.058.176-.246-.392-.66-.777-1.325-1.176-1.983a8533.986 8533.986 0 0 0-6.91-11.38c-.48-.788-.924-1.596-1.46-2.353m-.008 30.975c.094-.014.12-.096.163-.157 3.039-4.212 6.077-8.424 9.113-12.637.054-.076.187-.168.1-.251-.105-.102-.205.037-.293.09-.862.516-1.722 1.036-2.58 1.557-2.168 1.313-4.334 2.628-6.5 3.942l-9.487-5.736c-.012.166.077.23.132.307 3.046 4.228 6.095 8.454 9.145 12.68.056.078.083.187.207.205"/>
        <path fill="#51BA78" d="M15.576 21.66c-.582-.252-1.09-.619-1.625-.941-2.576-1.55-5.146-3.107-7.714-4.667-.096-.058-.307-.066-.214-.271.065-.02.136-.03.194-.062.705-.377 1.407-.758 2.111-1.137l7.24-3.9a.788.788 0 0 1 .022.055c-.003.154-.008.308-.008.462l-.006 10.46"/>
        <path fill="#9D68AA" d="M15.576 21.66c.002-3.487.003-6.974.006-10.46 0-.155.005-.309.008-.462.146.004.26.08.382.145.763.416 1.528.828 2.292 1.24 1.65.891 3.297 1.788 4.954 2.668.634.337 1.235.734 1.915.992.108.187-.094.195-.176.245-1.577.961-3.16 1.916-4.741 2.872-1.425.862-2.85 1.724-4.277 2.583-.114.069-.21.177-.363.177"/>
        <g transform="translate(6 .022)">
            <mask id="b" fill="#fff">
                <use xlink:href="#a"/>
            </mask>
            <path fill="#F7EB66" d="M9.569 10.66l-7.24 3.9c-.705.379-1.407.76-2.112 1.137-.059.032-.129.042-.194.062.397-.784.892-1.515 1.347-2.268 1.722-2.852 3.452-5.7 5.18-8.549L9.445.17C9.48.113 9.5.044 9.587.044l-.003 10.188c0 .142-.01.285-.015.427" mask="url(#b)"/>
        </g>
        <g transform="translate(15.53 .022)">
            <mask id="d" fill="#fff">
                <use xlink:href="#c"/>
            </mask>
            <path fill="#F38A76" d="M.038 10.66c.005-.143.015-.286.015-.428L.057.044c.536.757.98 1.565 1.46 2.353 2.307 3.792 4.609 7.586 6.91 11.38.399.658.784 1.322 1.175 1.984-.68-.257-1.28-.655-1.915-.992-1.656-.88-3.303-1.776-4.953-2.667-.765-.413-1.53-.825-2.293-1.24-.121-.067-.235-.142-.382-.146a.759.759 0 0 0-.02-.057" mask="url(#d)"/>
        </g>
        <g transform="translate(6.07 17.814)">
            <mask id="f" fill="#fff">
                <use xlink:href="#e"/>
            </mask>
            <path fill="#13AED2" d="M9.509 13.228c-.123-.019-.15-.128-.207-.205C6.252 8.797 3.204 4.57.157.343.102.265.013.201.025.034l9.487 5.736-.003 7.457" mask="url(#f)"/>
        </g>
        <g transform="translate(15.53 17.946)">
            <mask id="h" fill="#fff">
                <use xlink:href="#g"/>
            </mask>
            <path fill="#657BBD" d="M.048 13.096l.003-7.457c2.167-1.314 4.333-2.629 6.5-3.942C7.41 1.177 8.269.657 9.13.14c.089-.053.189-.192.294-.09.086.084-.046.176-.1.252C6.287 4.515 3.25 8.727.211 12.938c-.044.061-.07.143-.164.158" mask="url(#h)"/>
        </g>
    </g>
</svg>
