<svg xmlns="http://www.w3.org/2000/svg" width="38" height="38" viewBox="0 0 38 38">
    <g fill="none" fill-rule="evenodd">
        <path fill="#2B3239" fill-rule="nonzero" stroke="#9D9D9D" d="M18.99 15.959l2.596-2.598a7.842 7.842 0 0 1 5.547-2.298c4.326 0 7.845 3.52 7.845 7.845 0 4.326-3.519 7.844-7.844 7.844a7.845 7.845 0 0 1-5.548-2.298l-2.597-2.597-2.597 2.597a7.837 7.837 0 0 1-5.548 2.299C6.52 26.752 3 23.232 3 18.907c0-4.326 3.519-7.845 7.845-7.845a7.846 7.846 0 0 1 5.546 2.298l2.598 2.598zm-8.145-.725a3.678 3.678 0 0 0-3.674 3.674 3.678 3.678 0 0 0 3.674 3.673 3.682 3.682 0 0 0 2.598-1.077l2.597-2.596-2.597-2.597a3.694 3.694 0 0 0-.821-.619 3.62 3.62 0 0 0-1.777-.458zm11.094 3.674l2.596 2.597a3.677 3.677 0 0 0 2.598 1.076 3.678 3.678 0 0 0 3.674-3.673 3.678 3.678 0 0 0-5.449-3.217 3.684 3.684 0 0 0-.822.62l-2.597 2.597z"/>
        <path d="M0 0h38v38H0z"/>
    </g>
</svg>
