<?xml version="1.0" encoding="UTF-8"?>
<svg width="13px" height="14px" viewBox="0 0 13 14" version="1.1" xmlns="http://www.w3.org/2000/svg" xmlns:xlink="http://www.w3.org/1999/xlink">
    <!-- Generator: sketchtool 52.5 (67469) - http://www.bohemiancoding.com/sketch -->
    <title>300FB2A5-CDDF-4F1D-A17B-7A895F9F585D</title>
    <desc>Created with sketchtool.</desc>
    <defs>
        <path d="M12.35,2.66666667 L9.75,2.66666667 L9.75,2 C9.75,0.895 8.877375,0 7.8,0 L5.2,0 C4.122625,0 3.25,0.895 3.25,2 L3.25,2.66666667 L0.65,2.66666667 C0.291014913,2.66666667 0,2.9651435 0,3.33333333 C0,3.70152317 0.291014913,4 0.65,4 L1.3,4 L1.3,12 C1.3,13.105 2.172625,14 3.25,14 L9.75,14 C10.827375,14 11.7,13.105 11.7,12 L11.7,4 L12.35,4 C12.7089851,4 13,3.70152317 13,3.33333333 C13,2.9651435 12.7089851,2.66666667 12.35,2.66666667 Z M4.55,2 C4.55,1.63166667 4.840875,1.33333333 5.2,1.33333333 L7.8,1.33333333 C8.159125,1.33333333 8.45,1.63166667 8.45,2 L8.45,2.66666667 L4.55,2.66666667 L4.55,2 Z M10.4,12 C10.4,12.3683333 10.109125,12.6666667 9.75,12.6666667 L3.25,12.6666667 C2.890875,12.6666667 2.6,12.3683333 2.6,12 L2.6,4 L10.4,4 L10.4,12 Z" id="path-1"></path>
        <filter x="-111.5%" y="-110.7%" width="384.6%" height="364.3%" filterUnits="objectBoundingBox" id="filter-2">
            <feOffset dx="4" dy="3" in="SourceAlpha" result="shadowOffsetOuter1"></feOffset>
            <feGaussianBlur stdDeviation="5.5" in="shadowOffsetOuter1" result="shadowBlurOuter1"></feGaussianBlur>
            <feColorMatrix values="0 0 0 0 0   0 0 0 0 0   0 0 0 0 0  0 0 0 0.0842108243 0" type="matrix" in="shadowBlurOuter1"></feColorMatrix>
        </filter>
    </defs>
    <g id="Symbols" stroke="none" stroke-width="1" fill="none" fill-rule="evenodd">
        <g id="ic/delete">
            <g id="Shape">
                <use fill="black" fill-opacity="1" filter="url(#filter-2)" xlink:href="#path-1"></use>
                <use fill="#438CEF" fill-rule="evenodd" xlink:href="#path-1"></use>
            </g>
        </g>
    </g>
</svg>