<svg xmlns="http://www.w3.org/2000/svg" xmlns:xlink="http://www.w3.org/1999/xlink" width="32" height="32" viewBox="0 0 43 43">
    <defs>
        <path id="a" d="M0 0h29.815v34.857H0z"/>
    </defs>
    <g fill="none" fill-rule="evenodd">
        <g transform="translate(6.348 3.77)">
            <mask id="b" fill="#fff">
                <use xlink:href="#a"/>
            </mask>
            <path fill="#2B3239" stroke="#9D9D9D" stroke-width=".7" d="M26.536 8.419l-8.635-.002c.578-1.305.868-2.449.87-3.432.002-2.143-1.706-3.894-3.817-3.912-2.157-.018-3.906 1.726-3.909 3.899-.001.984.288 2.132.867 3.445-3.315 0-6.196 0-8.64.002-1.327 0-2.203.783-2.207 1.947-.005 1.165.873 1.958 2.193 1.962 2.334.006 3.059.001 5.393.002 1.486 0 2.2.635 2.215 2.149.011 1.107-.065 2.23-.247 3.322-.867 5.192-1.786 8.744-2.68 13.932-.214 1.238.442 2.254 1.547 2.435 1.081.177 1.998-.523 2.214-1.736.49-2.751.932-3.881 1.452-6.627.21-1.11.529-2.208.9-3.275.107-.31.569-.685.865-.682.3.003.728.377.865.693.319.738.572 1.524.718 2.316.57 3.096 1.077 4.572 1.629 7.67.203 1.14 1.156 1.817 2.214 1.64 1.075-.178 1.757-1.197 1.554-2.363-.806-4.652-1.649-7.667-2.417-12.325-.273-1.654-.467-3.335-.521-5.009-.048-1.478.722-2.137 2.133-2.14 1.153-.002 2.307 0 3.461 0 .717 0 .866.002 1.122.002l.89-.004c1.318-.007 2.194-.803 2.185-1.97-.009-1.164-.882-1.939-2.214-1.94" mask="url(#b)"/>
        </g>
        <path d="M0 0h43v43H0z"/>
    </g>
</svg>
