<svg xmlns="http://www.w3.org/2000/svg" width="32" height="32" viewBox="0 0 32 43">
    <defs>
        <filter id="a" width="135.5%" height="141.7%" x="-17.8%" y="-20.9%" filterUnits="objectBoundingBox">
            <feGaussianBlur in="SourceGraphic" stdDeviation="1.5"/>
        </filter>
    </defs>
    <g fill="none" fill-rule="evenodd">
        <path fill="#2B3239" stroke="#979797" stroke-width=".595" d="M12.643 8.833h7.714V6.917h-7.714v1.916zm16.363.989c-.663-.66-1.457-.989-2.381-.989h-4.339V6.437c0-.399-.14-.738-.422-1.018A1.399 1.399 0 0 0 20.839 5h-8.678a1.4 1.4 0 0 0-1.025.42c-.281.279-.422.618-.422 1.017v2.396H6.375c-.924 0-1.718.33-2.38.989C3.33 10.48 3 11.269 3 12.187v12.459c0 .918.331 1.707.994 2.366S5.451 28 6.375 28h20.25c.924 0 1.718-.33 2.38-.988.663-.659.995-1.448.995-2.366V12.187c0-.918-.332-1.706-.994-2.365z"/>
        <path fill="#2B3239" stroke="#36D6AE" stroke-width=".595" d="M12.643 8.833h7.714V6.917h-7.714v1.916zm16.363.989c-.663-.66-1.457-.989-2.381-.989h-4.339V6.437c0-.399-.14-.738-.422-1.018A1.399 1.399 0 0 0 20.839 5h-8.678a1.4 1.4 0 0 0-1.025.42c-.281.279-.422.618-.422 1.017v2.396H6.375c-.924 0-1.718.33-2.38.989C3.33 10.48 3 11.269 3 12.187v12.459c0 .918.331 1.707.994 2.366S5.451 28 6.375 28h20.25c.924 0 1.718-.33 2.38-.988.663-.659.995-1.448.995-2.366V12.187c0-.918-.332-1.706-.994-2.365z" filter="url(#a)"/>
        <path d="M0 0h32v32H0z"/>
    </g>
</svg>
