<svg xmlns="http://www.w3.org/2000/svg" width="32" height="32" viewBox="0 0 32 43">
    <g fill="none" fill-rule="evenodd">
        <g stroke="#979797" transform="translate(3 3)">
            <circle cx="12.768" cy="12.768" r="12.768" fill="#979797" stroke-width=".85"/>
            <path fill="#2B3239" fill-rule="nonzero" stroke-width=".85" d="M23.8 6.352a12.701 12.701 0 0 0-4.642-4.641C17.203.57 15.07 0 12.755 0c-2.314 0-4.448.57-6.402 1.71A12.698 12.698 0 0 0 1.71 6.353C.57 8.307 0 10.441 0 12.755c0 2.314.57 4.448 1.71 6.402A12.704 12.704 0 0 0 6.354 23.8c1.954 1.14 4.088 1.71 6.402 1.71s4.448-.57 6.403-1.71a12.698 12.698 0 0 0 4.641-4.642c1.14-1.954 1.71-4.088 1.71-6.402s-.57-4.449-1.71-6.403z"/>
            <path fill="#2B3239" fill-rule="nonzero" stroke-width=".595" d="M14.35 19.466c-.11-.133-.15-.244-.116-.333-.01.056-.05.106-.116.15a1.584 1.584 0 0 0-.299-.25 1.567 1.567 0 0 1-.299-.249 15.525 15.525 0 0 1-.24-.382c-.061-.1-.106-.185-.133-.257-.028-.072-.03-.114-.009-.124-.21.088-.515.027-.913-.183-.078-.044-.194-.16-.349-.349-.155-.188-.315-.271-.482-.25-.055.012-.13.031-.224.059a.868.868 0 0 1-.24.041.758.758 0 0 1-.266-.066 2.142 2.142 0 0 1-.357-.191 2.38 2.38 0 0 0-.308-.174l-.215-.117-.266-.132a.816.816 0 0 1-.208-.158.526.526 0 0 1-.14-.224c-.023-.066-.05-.2-.084-.399-.033-.2-.077-.343-.133-.431a1.497 1.497 0 0 0-.282-.333c-.122-.11-.232-.166-.332-.166.089 0 .089-.074 0-.224a1.682 1.682 0 0 0-.233-.324 20.797 20.797 0 0 1-.482-.532 1.327 1.327 0 0 1-.199-.307c-.055-.116-.066-.213-.033-.29.011-.012 0-.028-.033-.05a.86.86 0 0 0-.125-.067 2.855 2.855 0 0 0-.14-.058.327.327 0 0 0-.1-.025c.022.045.047.125.074.241a.956.956 0 0 0 .092.258c.022.044.116.205.282.481.288.465.42.809.399 1.03-.067.022-.111.011-.133-.033a.605.605 0 0 1-.05-.183 1.044 1.044 0 0 0-.033-.166c-.034-.066-.12-.138-.258-.216-.138-.077-.224-.155-.257-.232a.077.077 0 0 0 .041-.017.08.08 0 0 1 .042-.016c.011-.1-.047-.227-.175-.383-.127-.155-.18-.265-.157-.332-.089-.066-.166-.196-.233-.39-.066-.194-.122-.318-.166-.374a.71.71 0 0 0-.166-.174 3.277 3.277 0 0 0-.25-.166c-.099-.061-.165-.102-.199-.125a.64.64 0 0 1-.132-.149c-.366-.443-.476-.68-.332-.714-.144.033-.263-.075-.358-.324-.094-.25-.124-.44-.09-.573l-.034-.017c.011-.044.017-.174.017-.39 0-.216.014-.413.041-.59.028-.177.08-.265.158-.265-.077.01-.136-.059-.174-.208-.04-.15-.042-.252-.009-.307.011-.034.061-.011.15.066a.85.85 0 0 1 .15.15c.143-.078.199-.178.165-.3-.022-.044-.138-.16-.349-.348-.476-.31-.72-.46-.73-.449.066-.122.05-.227-.05-.315-.11.066-.174.083-.191.05a.643.643 0 0 1-.042-.183c-.01-.089-.039-.138-.083-.15-.055-.01-.122-.055-.199-.132a10.481 10.481 0 0 1 3.903-3.687c.066-.011.188-.017.365-.017a.664.664 0 0 1 .25.083c.077.044.157.105.24.183.083.077.147.132.19.166.023-.067-.005-.166-.082-.3.022-.066.144-.132.365-.199.255-.033.421-.027.498.017a4.369 4.369 0 0 0-.332-.415l-.083.083c-.088-.078-.32-.039-.697.116-.022.01-.078.042-.166.091-.089.05-.16.086-.216.108a.41.41 0 0 1-.2.017 9.408 9.408 0 0 1 1.562-.681c.033.022.088.069.166.14.077.073.138.125.182.159-.033-.022-.055-.012-.066.033-.044.133-.044.243 0 .332.055.078.13.122.224.133.094.01.208.005.34-.017.134-.022.222-.033.267-.033l.166.017c.354.033.492 0 .415-.1.033.044.072.136.116.274a.737.737 0 0 0 .15.29c.055-.044.066-.121.033-.232-.034-.11-.034-.188 0-.232.01-.022.044-.045.1-.067l.19-.075c.072-.027.12-.047.142-.058.066-.044.022-.122-.133-.232a1.134 1.134 0 0 0-.141-.05 2.386 2.386 0 0 1-.191-.066 1.055 1.055 0 0 1-.175-.092c-.06-.039-.088-.083-.083-.133a.45.45 0 0 1 .092-.19c.066-.056.174-.078.323-.067.15.01.263.038.34.083.3.166.344.316.134.448.11.011.244.056.399.133.154.078.215.16.182.25.089-.167.177-.25.266-.25.055.011.108.086.158.224.05.139.08.213.09.225.09.121.178.149.267.083.088-.067.18-.164.274-.291.094-.127.146-.185.157-.174-.11-.044-.122-.089-.033-.133.166-.1.316-.128.449-.083a.63.63 0 0 1 .132.15c.1.199.083.293-.05.282.1.088.141.2.125.332-.017.133-.103.194-.258.182a.59.59 0 0 1-.24-.083.746.746 0 0 0-.242-.09c-.055-.007-.133.024-.232.09-.044.056-.103.15-.175.283a1.271 1.271 0 0 1-.19.282c-.167.166-.444.227-.831.183.033 0 .03.033-.009.1a3.376 3.376 0 0 1-.274.365.847.847 0 0 0-.199.382c0 .022-.005.097-.017.224a.835.835 0 0 1-.066.29c.133-.033.238.034.315.2.067.155.067.238 0 .25.366-.056.687-.034.964.066.399.144.626.288.681.432.066-.1.227-.106.482-.017.1.055.187.221.265.498.045.166.12.31.225.432.105.121.218.155.34.1l.05-.034c.044-.022.08-.041.108-.058a.702.702 0 0 0 .09-.066c.034-.028.054-.053.059-.075.005-.022-.003-.044-.025-.066a.6.6 0 0 1-.174-.274.35.35 0 0 1 .025-.308c.033-.044.122-.11.266-.2.144-.088.232-.176.265-.265.045-.144-.01-.263-.166-.357-.155-.094-.232-.18-.232-.258 0-.055.036-.121.108-.199.072-.077.102-.15.09-.216a.807.807 0 0 0-.057-.208 1.143 1.143 0 0 1-.067-.232c-.005-.05.02-.108.075-.174.077-.045.26-.042.548.008.288.05.476.102.565.157.033.022.105.056.216.1a2 2 0 0 1 .29.141c.083.05.13.097.142.141h-.083a.399.399 0 0 1 .14.233c.017.089-.024.155-.124.2a.523.523 0 0 1 .266.05c.177.066.183.127.017.182.033-.011.08-.022.14-.033a.467.467 0 0 0 .224-.108.274.274 0 0 1 .075-.05.53.53 0 0 1 .075-.017.135.135 0 0 1 .1.025c.011 0 .036-.028.074-.083.039-.055.08-.11.125-.166.044-.055.083-.083.116-.083s.063.014.09.042c.029.027.05.058.067.091.017.033.033.07.05.108.017.039.03.07.042.091a.442.442 0 0 0 .157.174c.083.061.136.12.158.175.011.033.033.116.066.25.033.132.078.223.133.273.055.05.138.091.249.125.022.01.072.005.15-.017a.398.398 0 0 1 .19-.017c.05.011.075.056.075.133.066-.066.1-.11.1-.133a.7.7 0 0 0 .108.35c.06.088.157.127.29.115l-.033.366c-.033.055-.116.096-.25.124a.908.908 0 0 0-.248.075c-.033.011-.114.077-.241.2-.128.121-.18.193-.158.215-.188-.21-.47-.271-.847-.182-.42.066-.709.132-.863.199-.177.089-.3.172-.366.249a.522.522 0 0 0-.058.116 3.023 3.023 0 0 1-.083.183c-.028.055-.052.083-.074.083.066-.01.14-.064.224-.158a.961.961 0 0 1 .158-.157c.287-.189.525-.255.715-.198.243.066.282.155.116.265-.022.022-.08.03-.175.025a.598.598 0 0 0-.19.009c.1.022.182.052.249.09.066.04.083.092.05.159.177.1.21.21.1.332a.6.6 0 0 1-.515.182c.033 0 .033.023 0 .067l-.283.183c-.022.01-.094.038-.216.083a.564.564 0 0 0-.25.149.332.332 0 0 0-.049.2.882.882 0 0 1-.017.199c-.01.044-.055.055-.132.033-.034.067-.136.12-.308.158-.171.038-.285.097-.34.174.066.089.061.177-.017.266-.133.11-.249.1-.348-.033-.056.022-.097.077-.125.166-.028.088-.07.15-.124.182.077.122.066.211-.033.266a.23.23 0 0 1 .074.033c.039.022.08.05.125.083.044.034.071.05.083.05-.045.1-.106.15-.183.15.066.177-.017.37-.249.58a.763.763 0 0 1-.208.134 3 3 0 0 1-.258.108.542.542 0 0 0-.132.058c-.111.1-.194.202-.25.307a.359.359 0 0 0-.025.307c.04.1.142.166.308.2l.016.133v.298l.017.133c.011.078.02.147.025.208.005.061.005.138 0 .233-.005.094-.03.146-.075.157-.044.012-.105 0-.182-.033-.09-.044-.194-.288-.316-.73a1.109 1.109 0 0 0-.2-.4.5.5 0 0 1-.14.109c-.04.016-.067.02-.083.008a1.094 1.094 0 0 1-.092-.075 1.11 1.11 0 0 0-.116-.09.882.882 0 0 0-.29-.084c-.139-.022-.225-.05-.258-.083-.266.2-.427.15-.482-.149-.022.055-.02.13.008.224s.042.147.042.158c-.077.144-.2.155-.365.033-.067-.066-.219-.074-.457-.025-.238.05-.396.058-.473.025.01 0 .033.017.066.05a.453.453 0 0 1 .067.05.209.209 0 0 1-.05.1c-.023.021-.045.03-.067.024a.169.169 0 0 0-.075 0 .28.28 0 0 0-.074.025c-.045.033-.1.091-.166.174a.826.826 0 0 1-.15.158c.066.177.097.313.092.406a5.004 5.004 0 0 1-.05.416c-.028.182-.042.33-.042.44 0 .177.053.382.158.614.105.233.23.393.373.482.078.044.211.072.4.083.187.011.32 0 .398-.033a.409.409 0 0 0 .149-.116.562.562 0 0 0 .083-.191c.022-.083.039-.141.05-.174.077-.211.221-.322.431-.333.134-.01.23.003.291.042.061.038.086.09.075.157a.835.835 0 0 1-.066.208 3.508 3.508 0 0 1-.125.241.918.918 0 0 0-.09.2 2.768 2.768 0 0 0-.059.374c-.017.16-.03.257-.042.29.023.011.106.017.25.017 0-.022.008-.058.024-.108a.472.472 0 0 0 .025-.091c.056.088.144.138.266.149.122.011.21-.033.266-.133.022.033.089.117.2.25.11.132.171.243.182.332.011.044.033.116.066.216.034.1.045.169.034.208-.011.038-.067.058-.166.058-.044 0-.072.016-.083.05a.226.226 0 0 0 0 .124 1.08 1.08 0 0 0 .108.282c.028.05.041.08.041.091.2.365.47.465.814.3 0 .32-.078.497-.233.53-.087.022-.187-.034-.297-.166zM14.599 23.218a1.33 1.33 0 0 1-.032-.265c-.012-.09.027-.208.116-.357.088-.15.132-.263.132-.34-.177-.045-.243-.19-.2-.433.023-.166.183-.387.482-.664.211-.188.277-.454.2-.797a4.592 4.592 0 0 1-.083-.632 5.65 5.65 0 0 0-.067-.58c0 .032.053.063.158.09.105.028.169.064.191.108.022-.033.05-.094.083-.182a.845.845 0 0 1 .1-.2.565.565 0 0 1 .14-.125c.073-.05.12-.08.142-.09.021-.012.072-.048.149-.109.077-.06.141-.107.191-.14a.552.552 0 0 1 .2-.075c.083-.017.14.008.174.074.055.067.044.17-.033.308-.078.138-.078.235 0 .29.01-.033.022-.105.033-.216a.402.402 0 0 1 .1-.249.378.378 0 0 1 .19-.116.237.237 0 0 1 .166.025c.05.028.108.066.174.116.067.05.128.08.183.091.166.056.366.177.598.366-.01-.012-.01-.025 0-.042a.175.175 0 0 1 .067-.05c.033-.016.063-.033.09-.05a.465.465 0 0 1 .092-.04l.05-.017a.57.57 0 0 0 .166-.017c.033-.011.08 0 .14.033a1.132 1.132 0 0 1 .241.166c.056.044.095.078.116.1l.183.116c.089.055.158.1.208.132.05.033.094.084.132.15a.328.328 0 0 1 .042.216c.067.011.2.055.399.132a.596.596 0 0 0 .207.058c.106.017.175.042.208.075-1.604 1.695-3.548 2.741-5.828 3.14z"/>
        </g>
        <path d="M0 0h32v32H0z"/>
    </g>
</svg>
