<svg xmlns="http://www.w3.org/2000/svg" width="43" height="43" viewBox="0 0 43 43">
    <defs>
        <filter id="a" width="127.2%" height="155.5%" x="-13.6%" y="-27.7%" filterUnits="objectBoundingBox">
            <feGaussianBlur in="SourceGraphic" stdDeviation="1.5"/>
        </filter>
    </defs>
    <g fill="none" fill-rule="evenodd">
        <path fill="#2B3239" fill-rule="nonzero" stroke="#9D9D9D" stroke-width=".7" d="M21.17 17.79l2.895-2.894a8.742 8.742 0 0 1 6.184-2.562c4.822 0 8.745 3.922 8.745 8.745 0 4.822-3.923 8.745-8.745 8.745a8.746 8.746 0 0 1-6.184-2.562l-2.896-2.896-2.895 2.895a8.737 8.737 0 0 1-6.184 2.562c-4.822 0-8.746-3.922-8.746-8.744 0-4.823 3.923-8.746 8.746-8.746a8.747 8.747 0 0 1 6.183 2.562l2.896 2.896zm-9.08-.807a4.1 4.1 0 0 0-4.096 4.096 4.1 4.1 0 0 0 4.096 4.095c.703 0 1.369-.171 1.977-.51.34-.187.647-.419.92-.69l2.894-2.895-2.895-2.896a4.118 4.118 0 0 0-.915-.689 4.036 4.036 0 0 0-1.981-.51zm12.368 4.096l2.894 2.895a4.1 4.1 0 0 0 2.897 1.2 4.1 4.1 0 0 0 4.095-4.095 4.1 4.1 0 0 0-6.074-3.587 4.107 4.107 0 0 0-.917.691l-2.895 2.896z"/>
        <path fill="#2B3239" fill-rule="nonzero" stroke="#36D6AE" stroke-width=".7" d="M21.17 17.79l2.895-2.894a8.742 8.742 0 0 1 6.184-2.562c4.822 0 8.745 3.922 8.745 8.745 0 4.822-3.923 8.745-8.745 8.745a8.746 8.746 0 0 1-6.184-2.562l-2.896-2.896-2.895 2.895a8.737 8.737 0 0 1-6.184 2.562c-4.822 0-8.746-3.922-8.746-8.744 0-4.823 3.923-8.746 8.746-8.746a8.747 8.747 0 0 1 6.183 2.562l2.896 2.896zm-9.08-.807a4.1 4.1 0 0 0-4.096 4.096 4.1 4.1 0 0 0 4.096 4.095c.703 0 1.369-.171 1.977-.51.34-.187.647-.419.92-.69l2.894-2.895-2.895-2.896a4.118 4.118 0 0 0-.915-.689 4.036 4.036 0 0 0-1.981-.51zm12.368 4.096l2.894 2.895a4.1 4.1 0 0 0 2.897 1.2 4.1 4.1 0 0 0 4.095-4.095 4.1 4.1 0 0 0-6.074-3.587 4.107 4.107 0 0 0-.917.691l-2.895 2.896z" filter="url(#a)"/>
        <path d="M0 0h42.363v42.363H0z"/>
    </g>
</svg>
