<svg xmlns="http://www.w3.org/2000/svg" width="43" height="43" viewBox="0 0 43 43">
    <g fill="none" fill-rule="evenodd">
        <path fill="#2B3239" fill-rule="nonzero" stroke="#9D9D9D" stroke-width=".7" d="M25.329 35.296h.003v-2.453h3.035v2.453a1.52 1.52 0 0 1-3.038 0zm0-26.777a1.517 1.517 0 1 1 3.035 0v2.453H25.33V8.52zm-4.94 0a1.52 1.52 0 0 1 3.038 0v2.453h-3.039V8.52zm0 26.777v-2.453h3.038v2.453a1.52 1.52 0 0 1-3.039 0zM15.45 8.519a1.517 1.517 0 1 1 3.035 0v2.453h-3.035V8.52zm0 26.777v-2.453h3.038v2.453a1.52 1.52 0 0 1-3.038 0zM7 26.845c0-.839.68-1.516 1.52-1.516h2.452v3.035H8.52A1.52 1.52 0 0 1 7 26.844zm28.296-1.516a1.517 1.517 0 1 1 0 3.035h-2.453V25.33h2.453zM7 21.907c0-.838.68-1.519 1.52-1.519h2.452v3.039H8.52A1.52 1.52 0 0 1 7 21.907zm28.296-1.519a1.52 1.52 0 0 1 0 3.039h-2.453v-3.039h2.453zM7 16.97c0-.839.68-1.52 1.52-1.52h2.452v3.04H8.52A1.52 1.52 0 0 1 7 16.97zm28.296-1.52a1.517 1.517 0 1 1 0 3.036h-2.453v-3.035h2.453zM12.43 29.802V14.014c0-.874.71-1.583 1.583-1.583H29.8c.874 0 1.583.71 1.583 1.583V29.8c0 .874-.71 1.583-1.583 1.583H14.014A1.583 1.583 0 0 1 12.43 29.8z"/>
        <path d="M0 0h43v43H0z"/>
    </g>
</svg>
