<svg xmlns="http://www.w3.org/2000/svg" width="32" height="32" viewBox="0 0 43">
    <g fill="none" fill-rule="evenodd">
        <path fill="#2B3239" fill-rule="nonzero" stroke="#979797" stroke-width=".5" d="M26.645 16.68c.022-6.819-4.36-12.697-10.597-15.035C9.796 3.943 5.377 9.793 5.355 16.611c-.022 6.818 4.36 12.696 10.597 15.034 6.252-2.298 10.671-8.148 10.693-14.966zm-17.742-.058c.013-3.818 3.145-6.808 7.119-6.795 3.974.013 7.087 3.023 7.075 6.84-.013 3.82-3.145 6.81-7.119 6.796-3.974-.012-7.087-3.022-7.075-6.84zm11.355.037c.007-2.318-1.832-4.097-4.245-4.105-2.413-.007-4.264 1.76-4.271 4.078-.007 2.318 1.832 4.096 4.245 4.104 2.413.008 4.264-1.759 4.271-4.077z"/>
        <path d="M0 0h32v32H0z"/>
    </g>
</svg>
