<svg xmlns="http://www.w3.org/2000/svg" width="32" height="32" viewBox="0 0 43">
    <defs>
        <filter id="a" width="136.5%" height="137.2%" x="-18.3%" y="-18.7%" filterUnits="objectBoundingBox">
            <feGaussianBlur in="SourceGraphic" stdDeviation="1.5"/>
        </filter>
    </defs>
    <g fill="none" fill-rule="evenodd">
        <path fill="#2B3239" stroke="#979797" stroke-width=".595" d="M29.488 7.472c-.196-.033-.36-.071-.55-.094-1.16-.133-2.328-.294-3.511-.39a27.978 27.978 0 0 0-2.26-.105c-.88 0-1.765.06-2.65.226a6.252 6.252 0 0 0-2.111.783 5.33 5.33 0 0 0-1.639 1.557c-.628.914-.923 1.9-.922 2.906 0 .645.12 1.298.338 1.95a.483.483 0 0 1 .021.08.607.607 0 0 1-.071.062c-.409.32-.792.657-1.17.986-.206-1.25-.518-2.49-1.08-3.664a3.108 3.108 0 0 1-.14-.324.736.736 0 0 1-.047-.234c0-.047.007-.088.024-.134a.574.574 0 0 1 .096-.16.653.653 0 0 0 .117-.235c.018-.061.026-.106.033-.13.115-.434.171-.865.171-1.29 0-.865-.233-1.7-.646-2.485a5.559 5.559 0 0 0-1.331-1.635c-.523-.449-1.103-.818-1.69-1.158-.709-.412-1.47-.75-2.311-.922L7.856 3l-.113.285c-.024.063-.043.106-.065.166a6.801 6.801 0 0 0-.37 2.28c0 .484.042.966.111 1.445.087.601.22 1.198.446 1.767.225.57.546 1.112 1.003 1.593.412.434.859.836 1.38 1.135.52.298 1.12.487 1.802.487l.073-.002.011.01.008.01c.205.445.394.897.562 1.354.05.135.093.277.134.421-.527-.1-1.032-.196-1.534-.298l-.01-.003a.201.201 0 0 1-.062-.042 3.69 3.69 0 0 0-1.264-.86 4.976 4.976 0 0 0-1.833-.36c-.633 0-1.215.15-1.75.378-.535.229-1.028.534-1.5.852a6.15 6.15 0 0 0-1.665 1.615l-.22.314.328.2c.562.344 1.09.739 1.71 1.031.85.399 1.762.707 2.74.708.32 0 .646-.033.976-.107.583-.13 1.146-.326 1.64-.651a3.221 3.221 0 0 0 1.133-1.282 33.1 33.1 0 0 1 1.59.49.314.314 0 0 1 .097.05.234.234 0 0 1 .073.104c.02.051.035.127.038.224.043 1.32.096 2.638.144 3.955-.012.132-.03.244-.046.302a.858.858 0 0 1-.133.27 3.3 3.3 0 0 1-.42.456c-.169.163-.356.335-.522.54a.35.35 0 0 1-.027.03.486.486 0 0 1-.062-.02 38.15 38.15 0 0 0-2.066-.755.83.83 0 0 0-.255-.038c-.113 0-.221.018-.327.05a.87.87 0 0 0-.307.163.666.666 0 0 0-.133.158 1 1 0 0 0-.137.5c0 .068.007.139.031.217a.725.725 0 0 0 .113.217c.068.09.145.16.226.22.082.06.167.108.257.146.465.192.933.364 1.419.543l-3.378 3.835c-.112.129-.258.271-.39.462a.912.912 0 0 0-.171.516c0 .116.027.235.08.341a.96.96 0 0 0 .487.45.819.819 0 0 0 .636-.004c.1-.041.192-.1.275-.169.064-.054.112-.108.153-.155.04-.046.072-.087.098-.117l1.418-1.607c.067.348.132.698.205 1.05a1.1 1.1 0 0 0 .281.562.813.813 0 0 0 .729.23.925.925 0 0 0 .295-.1.805.805 0 0 0 .327-.33.95.95 0 0 0 .105-.448c0-.077-.008-.154-.022-.232-.133-.734-.27-1.467-.418-2.2a.637.637 0 0 1-.014-.124c0-.045.006-.072.018-.104a.426.426 0 0 1 .083-.122c.837-.923 1.65-1.86 2.47-2.788.178.217.357.433.566.637a.564.564 0 0 1 .137.193c.025.061.037.127.037.217 0 .056-.005.12-.016.193-.12.79-.21 1.58-.306 2.363a1.06 1.06 0 0 0-.008.13.847.847 0 0 0 .722.865.896.896 0 0 0 .47-.038.812.812 0 0 0 .373-.273.962.962 0 0 0 .177-.425c.034-.2.053-.39.076-.567l.079-.603c.848.994 1.694 1.99 2.546 2.983.094.11.203.2.326.263a.87.87 0 0 0 .4.1.83.83 0 0 0 .304-.057.913.913 0 0 0 .263-.16.907.907 0 0 0 .223-.283.792.792 0 0 0 .082-.352.872.872 0 0 0-.064-.323 1.147 1.147 0 0 0-.17-.287c-.163-.205-.332-.389-.484-.569l-.468-.556c.548-.088 1.07-.17 1.591-.257.11-.018.215-.047.313-.09a.864.864 0 0 0 .372-.303.815.815 0 0 0 .136-.46c0-.06-.006-.121-.017-.182a.862.862 0 0 0-.105-.288.79.79 0 0 0-.337-.31.999.999 0 0 0-.44-.094c-.069 0-.14.006-.21.017-.83.129-1.67.243-2.51.392a.487.487 0 0 1-.084.01c-.037-.002-.039-.005-.052-.01a.333.333 0 0 1-.087-.082c-.406-.486-.87-.962-1.314-1.44-.442-.48-.862-.96-1.179-1.443a2.01 2.01 0 0 1-.224-.568 7.702 7.702 0 0 1-.192-1.222 14.037 14.037 0 0 1-.05-.951l.003-.436c0-.068.002-.133.01-.178a.321.321 0 0 1 .01-.049l.002-.006c.475-.696 1.1-1.259 1.82-1.787a5.571 5.571 0 0 0 1.852 1.529c.686.344 1.43.52 2.19.52.937 0 1.895-.267 2.799-.803 1.013-.6 1.8-1.42 2.445-2.354 1.387-2.007 2.376-4.196 3.25-6.423.057-.145.106-.285.164-.443l.15-.406-.43-.076z"/>
        <path fill="#2B3239" stroke="#36D6AE" stroke-width=".595" d="M29.488 7.472c-.196-.033-.36-.071-.55-.094-1.16-.133-2.328-.294-3.511-.39a27.978 27.978 0 0 0-2.26-.105c-.88 0-1.765.06-2.65.226a6.252 6.252 0 0 0-2.111.783 5.33 5.33 0 0 0-1.639 1.557c-.628.914-.923 1.9-.922 2.906 0 .645.12 1.298.338 1.95a.483.483 0 0 1 .021.08.607.607 0 0 1-.071.062c-.409.32-.792.657-1.17.986-.206-1.25-.518-2.49-1.08-3.664a3.108 3.108 0 0 1-.14-.324.736.736 0 0 1-.047-.234c0-.047.007-.088.024-.134a.574.574 0 0 1 .096-.16.653.653 0 0 0 .117-.235c.018-.061.026-.106.033-.13.115-.434.171-.865.171-1.29 0-.865-.233-1.7-.646-2.485a5.559 5.559 0 0 0-1.331-1.635c-.523-.449-1.103-.818-1.69-1.158-.709-.412-1.47-.75-2.311-.922L7.856 3l-.113.285c-.024.063-.043.106-.065.166a6.801 6.801 0 0 0-.37 2.28c0 .484.042.966.111 1.445.087.601.22 1.198.446 1.767.225.57.546 1.112 1.003 1.593.412.434.859.836 1.38 1.135.52.298 1.12.487 1.802.487l.073-.002.011.01.008.01c.205.445.394.897.562 1.354.05.135.093.277.134.421-.527-.1-1.032-.196-1.534-.298l-.01-.003a.201.201 0 0 1-.062-.042 3.69 3.69 0 0 0-1.264-.86 4.976 4.976 0 0 0-1.833-.36c-.633 0-1.215.15-1.75.378-.535.229-1.028.534-1.5.852a6.15 6.15 0 0 0-1.665 1.615l-.22.314.328.2c.562.344 1.09.739 1.71 1.031.85.399 1.762.707 2.74.708.32 0 .646-.033.976-.107.583-.13 1.146-.326 1.64-.651a3.221 3.221 0 0 0 1.133-1.282 33.1 33.1 0 0 1 1.59.49.314.314 0 0 1 .097.05.234.234 0 0 1 .073.104c.02.051.035.127.038.224.043 1.32.096 2.638.144 3.955-.012.132-.03.244-.046.302a.858.858 0 0 1-.133.27 3.3 3.3 0 0 1-.42.456c-.169.163-.356.335-.522.54a.35.35 0 0 1-.027.03.486.486 0 0 1-.062-.02 38.15 38.15 0 0 0-2.066-.755.83.83 0 0 0-.255-.038c-.113 0-.221.018-.327.05a.87.87 0 0 0-.307.163.666.666 0 0 0-.133.158 1 1 0 0 0-.137.5c0 .068.007.139.031.217a.725.725 0 0 0 .113.217c.068.09.145.16.226.22.082.06.167.108.257.146.465.192.933.364 1.419.543l-3.378 3.835c-.112.129-.258.271-.39.462a.912.912 0 0 0-.171.516c0 .116.027.235.08.341a.96.96 0 0 0 .487.45.819.819 0 0 0 .636-.004c.1-.041.192-.1.275-.169.064-.054.112-.108.153-.155.04-.046.072-.087.098-.117l1.418-1.607c.067.348.132.698.205 1.05a1.1 1.1 0 0 0 .281.562.813.813 0 0 0 .729.23.925.925 0 0 0 .295-.1.805.805 0 0 0 .327-.33.95.95 0 0 0 .105-.448c0-.077-.008-.154-.022-.232-.133-.734-.27-1.467-.418-2.2a.637.637 0 0 1-.014-.124c0-.045.006-.072.018-.104a.426.426 0 0 1 .083-.122c.837-.923 1.65-1.86 2.47-2.788.178.217.357.433.566.637a.564.564 0 0 1 .137.193c.025.061.037.127.037.217 0 .056-.005.12-.016.193-.12.79-.21 1.58-.306 2.363a1.06 1.06 0 0 0-.008.13.847.847 0 0 0 .722.865.896.896 0 0 0 .47-.038.812.812 0 0 0 .373-.273.962.962 0 0 0 .177-.425c.034-.2.053-.39.076-.567l.079-.603c.848.994 1.694 1.99 2.546 2.983.094.11.203.2.326.263a.87.87 0 0 0 .4.1.83.83 0 0 0 .304-.057.913.913 0 0 0 .263-.16.907.907 0 0 0 .223-.283.792.792 0 0 0 .082-.352.872.872 0 0 0-.064-.323 1.147 1.147 0 0 0-.17-.287c-.163-.205-.332-.389-.484-.569l-.468-.556c.548-.088 1.07-.17 1.591-.257.11-.018.215-.047.313-.09a.864.864 0 0 0 .372-.303.815.815 0 0 0 .136-.46c0-.06-.006-.121-.017-.182a.862.862 0 0 0-.105-.288.79.79 0 0 0-.337-.31.999.999 0 0 0-.44-.094c-.069 0-.14.006-.21.017-.83.129-1.67.243-2.51.392a.487.487 0 0 1-.084.01c-.037-.002-.039-.005-.052-.01a.333.333 0 0 1-.087-.082c-.406-.486-.87-.962-1.314-1.44-.442-.48-.862-.96-1.179-1.443a2.01 2.01 0 0 1-.224-.568 7.702 7.702 0 0 1-.192-1.222 14.037 14.037 0 0 1-.05-.951l.003-.436c0-.068.002-.133.01-.178a.321.321 0 0 1 .01-.049l.002-.006c.475-.696 1.1-1.259 1.82-1.787a5.571 5.571 0 0 0 1.852 1.529c.686.344 1.43.52 2.19.52.937 0 1.895-.267 2.799-.803 1.013-.6 1.8-1.42 2.445-2.354 1.387-2.007 2.376-4.196 3.25-6.423.057-.145.106-.285.164-.443l.15-.406-.43-.076z" filter="url(#a)"/>
        <path d="M0 0h32v32H0z"/>
    </g>
</svg>
