<svg xmlns="http://www.w3.org/2000/svg" xmlns:xlink="http://www.w3.org/1999/xlink" width="32" height="32" viewBox="0 0 43 43">
    <defs>
        <path id="a" d="M0 0h43v37.342H0z"/>
    </defs>
    <g fill="none" fill-rule="evenodd">
        <g transform="translate(0 3.395)">
            <mask id="b" fill="#fff">
                <use xlink:href="#a"/>
            </mask>
            <path fill="#2B3239" stroke="#9D9D9D" d="M20.938 4.604c-1.123.626-1.783 1.74-2.28 2.881a7.107 7.107 0 0 0-.509 3.906l.148.975-.502-.102a11.338 11.338 0 0 0-6.798.7 10.223 10.223 0 0 1-4.074.842h-2.98a.549.549 0 0 0-.478.278.54.54 0 0 0 .01.549l.571.924a4.88 4.88 0 0 0 2.369 1.966l.209.496a3.51 3.51 0 0 0 2.505 2.07l.468.52c.504.561 1.148.968 1.857 1.188l.126.128a4.973 4.973 0 0 0 3.51 1.456c.74 0 1.485-.17 2.151-.49l.7-.338 1.055 2.02c.199.382.186.83-.034 1.2l-2.457 4.13a.54.54 0 0 0 .027.593 3.67 3.67 0 0 0 2.29 1.445c.03.042.067.082.111.116l.183.143a3.94 3.94 0 0 0 2.412.828 3.94 3.94 0 0 0 2.412-.829l.183-.142a.545.545 0 0 0 .112-.118 3.67 3.67 0 0 0 2.29-1.445.54.54 0 0 0 .026-.592l-2.458-4.13a1.224 1.224 0 0 1-.034-1.199l1.038-1.991.639.307c.666.321 1.41.491 2.152.491 1.297 0 2.562-.52 3.479-1.428l.03-.03.126-.127a4.147 4.147 0 0 0 1.856-1.188l.468-.521a3.51 3.51 0 0 0 2.505-2.07l.21-.496a4.879 4.879 0 0 0 2.367-1.966l.57-.925a.539.539 0 0 0 .011-.549.55.55 0 0 0-.478-.278h-2.98c-1.41 0-2.78-.282-4.074-.84a11.336 11.336 0 0 0-6.799-.699l-.422.086.146-.959a7.108 7.108 0 0 0-.511-3.905 7.168 7.168 0 0 0-1.53-2.235c-.257-.254-.64-.53-.904-.626-.258-.094-.78-.153-1.02-.02" mask="url(#b)"/>
        </g>
        <path d="M0 0h43v43H0z"/>
    </g>
</svg>
