<svg xmlns="http://www.w3.org/2000/svg" width="32" height="32" viewBox="0 0 32 43">
    <g fill="none" fill-rule="evenodd">
        <path fill="#2B3239" fill-rule="nonzero" stroke="#979797" stroke-width=".68" d="M28.564 3H4.436C3.643 3 3 3.643 3 4.436v24.128C3 29.357 3.643 30 4.436 30h24.128c.793 0 1.436-.643 1.436-1.436V4.436C30 3.643 29.357 3 28.564 3z"/>
        <path fill="#979797" fill-rule="nonzero" d="M27.77 9.713c-.988.03-1.6.558-1.965 1.425-.898 2.027-3.642 8.45-5.474 12.637a33.54 33.54 0 0 1-.481-.002l-2.89-6.804c-1.143 2.247-2.41 4.58-3.496 6.8a4.846 4.846 0 0 1-.525-.001c-1.658-3.871-3.378-7.716-5.045-11.583-.386-.946-1.74-2.466-2.665-2.458 0-.11-.006-.354-.006-.503h5.709l-.005.494c-.67.032-1.828.46-1.528 1.2.805 1.737 3.654 8.468 4.424 10.177.538-1.051 2.038-3.855 2.655-5.04-.484-.995-2.084-4.705-2.565-5.64-.361-.609-1.27-.684-1.97-.694.001-.157.01-.277.006-.49l5.02.015v.456c-.68.019-1.323.271-1.033.92.676 1.403 1.071 2.4 1.69 3.696.199-.38 1.213-2.46 1.696-3.56.294-.73-.144-1.003-1.367-1.036.017-.12.006-.361.017-.476l4.334.004.002.453c-.795.03-1.62.455-2.052 1.114l-2.087 4.328c.23.573 2.236 5.031 2.448 5.526l4.316-9.96c-.307-.807-1.287-.987-1.67-.996.003-.128.003-.324.004-.488l4.505.013.006.023-.008.45z"/>
        <path d="M0 0h32v32H0z"/>
    </g>
</svg>
