<?xml version="1.0" encoding="UTF-8"?>
<svg width="24px" height="24px" viewBox="0 0 24 24" version="1.1" xmlns="http://www.w3.org/2000/svg" xmlns:xlink="http://www.w3.org/1999/xlink">
    <!-- Generator: sketchtool 52.5 (67469) - http://www.bohemiancoding.com/sketch -->
    <title>06A3D719-AE04-4C86-9F83-E05D38D4D2FE</title>
    <desc>Created with sketchtool.</desc>
    <g id="Symbols" stroke="none" stroke-width="1" fill="none" fill-rule="evenodd">
        <g id="ic/pensil" fill="#FFFFFF" fill-rule="nonzero">
            <path d="M5.73684211,19 C5.51578947,19 5.36842105,18.9263158 5.22105263,18.7789474 C5.07368421,18.6315789 5,18.3368421 5,18.1157895 L5.73684211,14.4315789 C5.73684211,14.2842105 5.81052632,14.1368421 5.95789474,14.0631579 L14.8,5.22105263 C15.0947368,4.92631579 15.5368421,4.92631579 15.8315789,5.22105263 L18.7789474,8.16842105 C19.0736842,8.46315789 19.0736842,8.90526316 18.7789474,9.2 L9.93684211,18.0421053 C9.86315789,18.1157895 9.71578947,18.1894737 9.56842105,18.2631579 L5.88421053,19 L5.73684211,19 Z M6.81118881,14.006993 L6.4,16.2 L8.59300699,15.7888112 L16.2,8.18181818 L14.4181818,6.4 L6.81118881,14.006993 Z" id="Shape"></path>
        </g>
    </g>
</svg>